<?xml version="1.0" standalone="no"?>
<!DOCTYPE svg PUBLIC "-//W3C//DTD SVG 20010904//EN"
 "http://www.w3.org/TR/2001/REC-SVG-20010904/DTD/svg10.dtd">
<svg version="1.0" xmlns="http://www.w3.org/2000/svg"
 width="700.000000pt" height="700.000000pt" viewBox="0 0 700.000000 700.000000"
 preserveAspectRatio="xMidYMid meet">
<metadata>
Created by potrace 1.14, written by Peter Selinger 2001-2017
</metadata>
<g transform="translate(0.000000,700.000000) scale(0.100000,-0.100000)"
fill="#000000" stroke="none">
<path d="M3305 6510 c-1715 -5 -2282 -9 -2320 -18 -219 -53 -342 -144 -425
-316 -75 -156 -70 35 -70 -2683 0 -2718 -6 -2513 72 -2673 31 -64 58 -101 108
-151 104 -102 210 -147 405 -169 58 -6 933 -10 2491 -10 2301 0 2403 1 2471
18 222 59 391 226 448 447 30 114 39 529 38 1765 0 1690 -17 3129 -38 3240
-57 308 -194 476 -436 535 -90 22 -156 23 -2744 15z m-1145 -1636 c63 -8 151
-21 195 -30 l80 -14 562 -563 563 -562 -568 -568 -567 -567 -105 -20 c-113
-21 -218 -35 -343 -45 l-79 -7 7 79 c9 114 35 308 50 383 l14 65 330 335 c182
184 331 338 331 342 0 4 -70 76 -156 160 -86 84 -235 235 -331 335 l-174 182
-20 107 c-15 87 -49 362 -49 404 0 12 82 7 260 -16z m2798 -2536 c32 -51 77
-126 98 -165 l39 -73 -34 -62 c-18 -35 -62 -107 -97 -160 l-64 -98 -603 0
-603 0 -51 78 c-28 42 -72 114 -97 159 l-48 83 53 92 c28 51 74 126 101 166
l49 72 598 0 599 0 60 -92z"/>
</g>
</svg>
