<svg id="Layer_1" data-name="Layer 1" xmlns="http://www.w3.org/2000/svg" xmlns:xlink="http://www.w3.org/1999/xlink" viewBox="0 0 1920 1080"><defs><style>.cls-1{fill:none;}.cls-2{fill:#123463;}.cls-3{fill:#ef8f06;}.cls-4{fill:#f7931a;}.cls-11,.cls-5{fill:#fff;}.cls-6{clip-path:url(#clip-path);}.cls-7{fill:url(#linear-gradient);}.cls-8{clip-path:url(#clip-path-2);}.cls-9{fill:url(#linear-gradient-2);}.cls-10{fill:#26a17b;}.cls-11{fill-rule:evenodd;}.cls-12{fill:#2775ca;}</style><clipPath id="clip-path"><path class="cls-1" d="M1577.16,713.11h0l-4.11,4.11v.68h18.14a.33.33,0,0,0,.34-.34l3.77-4.11v-.68H1595l-17.79.34c.34-.34,0-.34,0,0m-3.77-7.53h0c-.34,0-.34,0-.34.35v.68l3.77,4.11.34.34h18.14v-.69l-3.77-4.1-.34-.34c-.34-.35-.34,0-.34,0Zm4.11-7.52h0c-.34,0-.34.34-.68.34l-3.77,4.1v.69h18.14a.33.33,0,0,0,.34-.34l3.77-4.11v-.68h-17.8Z"/></clipPath><linearGradient id="linear-gradient" x1="601.58" y1="995.34" x2="601.63" y2="995.34" gradientTransform="matrix(404.88, -404.88, 404.88, 404.88, -644987.89, -158707.82)" gradientUnits="userSpaceOnUse"><stop offset="0" stop-color="#9945ff"/><stop offset="0.2" stop-color="#7962e7"/><stop offset="1" stop-color="#00d18c"/></linearGradient><clipPath id="clip-path-2"><path class="cls-1" d="M159,960.61h0l-2.58,2.59v.43h11.42a.22.22,0,0,0,.22-.22l2.37-2.58v-.44h-.22l-11.21.22h0m-2.37-4.74h0c-.21,0-.21,0-.21.21v.43l2.37,2.59.21.22h11.43v-.43l-2.37-2.59-.22-.22h-.22Zm2.59-4.74h0c-.22,0-.22.21-.43.21l-2.37,2.59v.43h11.42a.22.22,0,0,0,.22-.22l2.37-2.58v-.43H159.25Z"/></clipPath><linearGradient id="linear-gradient-2" x1="599.52" y1="993.89" x2="599.56" y2="993.89" xlink:href="#linear-gradient"/></defs><rect class="cls-2" x="-327.5" y="-277.5" width="2575" height="1635"/><path class="cls-3" d="M1401,1151.53c-.22,0-.34-.11-.45-.34l-16.5-85.75-16.6-76.6L1352,940.38c-.11-.23,0-.46.34-.57s.45,0,.56.34l15.48,48.58,16.61,76.71,16.49,85.75a.62.62,0,0,1-.34.57C1401.12,1151.53,1401.12,1151.53,1401,1151.53Z"/><path class="cls-3" d="M1478.06,1151.53c-.22,0-.34-.11-.45-.34l-21.24-84.28-20.67-72.08L1416.6,949l-17.51-29.26-16-16.27-14.69-7.68-75.13-8.81-29-3.17c-.22,0-.33-.22-.33-.45s.22-.34.45-.34l29,3.17,27.8,3.27,47.33,5.54h.12l14.91,7.68a.11.11,0,0,1,.11.11l16.16,16.39v.11l17.62,29.26h0l19.1,45.87h0l20.67,72.19,21.24,84.28c0,.34-.11.68-.34.68Z"/><path class="cls-3" d="M1324.52,1151.53c-.22,0-.33-.22-.45-.34l-12-85.18-12.66-80.22-11.75-50.95-11-31.07-10-15.48-9.26-5.19a.42.42,0,0,1-.23-.57.41.41,0,0,1,.56-.22l9.38,5.19a.38.38,0,0,0,.23.12l10.17,15.59v.11l11,31.18h0l11.75,51,12.66,80.22,12,85.18c.12.46,0,.68-.34.68Z"/><path class="cls-3" d="M1555.57,1151.53c-.23,0-.34-.11-.46-.34l-26.43-81.68-24.86-67a.43.43,0,1,1,.79-.33l24.86,67,26.43,81.68a.47.47,0,0,1-.33.68Z"/><path class="cls-3" d="M1634,1151.53c-.22,0-.34-.11-.34-.22l-32.2-78.86-29.14-61.35L1545.62,971l-24.17-29-22-20.11L1479.19,908l-18.41-10.39-16.84-10.06h0l-15.36-12.88-.12-.11-14-18.53-12.88-18.08-12-13.55L1378.42,816l-5-1.7-5.53-1.92-40.11-15.59a.41.41,0,0,1-.23-.56.42.42,0,0,1,.57-.23l40.11,15.59,5.53,1.92,5.09,1.7a.11.11,0,0,1,.11.11l11.3,8.36h.11l12.09,13.67h0l12.88,18.08,13.9,18.41,15.36,12.88,16.83,10.06,18.53,10.5,20.23,13.9h0l22.14,20.22h0l24.29,29h0l26.66,40.11h0l29.15,61.46,32.2,79a.41.41,0,0,1-.23.56Z"/><path class="cls-3" d="M1248.49,1151.53c-.23,0-.34-.22-.45-.34l-7.68-81.68-8.7-82.7-8.25-53.1-7.68-33-7.12-17-6.44-6-4.07-.34-54.45-6.89-52.54-7.46L1038.69,853l-52.31-11.41-52.2-11.52L882,819.26l-52.08-9.37-52-7.46c-.23,0-.34-.23-.34-.45s.22-.34.45-.34l52,7.46,52.19,9.37,52.2,10.85L986.72,841,1039,852.37l52.31,10h.45l52,7.46,2.26.22,52.2,6.67,4.18.34c.11,0,.22,0,.22.11l6.55,6.21.12.12,7.11,17.06v.11l7.8,32.88,8.25,53.21,8.7,82.7,7.68,81.68c.11.12-.11.34-.34.34Z"/><path class="cls-3" d="M1173,1151.53a.49.49,0,0,1-.45-.34l-3.84-73.88-4.86-83.83-4.63-54.91-4.41-35.82-4.07-20-3.84-8.93-3.5-3.27-3.28-3.73a.43.43,0,0,1-.11-.23l-2.94-10.39v-.12l-2.48-23.83-2.15-36.61-1.92-36.15-1.92-26.21-1.92-12c0-.23.11-.45.34-.45s.45.11.45.34l1.92,12,1.92,26.21,1.92,36.16,2.15,36.6,2.48,23.84,2.83,10.28,3.16,3.62,3.62,3.27.11.12,3.84,9v.11l4.18,20.11,4.41,35.81,4.63,55,4.86,83.95,3.84,73.88C1173.47,1151.31,1173.25,1151.53,1173,1151.53Z"/><path class="cls-3" d="M655.69,1151.53h-.11a.41.41,0,0,1-.23-.56l21-62.82,21.35-64.06,19.21-58.41,17.28-57.62,15.71-48.58,14.46-35.58h0l13.33-22.15c.11-.22.34-.22.56-.22s.23.33.23.56l-13.33,22.14-14.46,35.59L735,908.4,717.72,966l-19.21,58.41-21.35,64.06-21,62.82A.45.45,0,0,1,655.69,1151.53Z"/><path class="cls-3" d="M1098.68,1151.53a.48.48,0,0,1-.45-.45l-.68-63.61-1.13-83.6-1.13-56.49-1.13-39.32L1093,883.55,1091.9,870l-1-7.34-.91-6.44-.79-11.75-.68-23.5-.45-35.25-.45-34.57-.45-24.75-.57-10.84a.5.5,0,0,1,.34-.45c.23,0,.45.11.45.34l.57,10.84.45,24.86.45,34.57.45,35.25.68,23.5.79,11.63.91,6.44,1,7.35,1.13,13.55,1.13,24.63,1.13,39.32,1.13,56.49,1.13,83.6.68,63.61C1099,1151.42,1098.91,1151.53,1098.68,1151.53Z"/><path class="cls-3" d="M732.29,1151.53h0a.38.38,0,0,1-.34-.56l14.13-55.47L763.7,1027l15.82-59.2,14.23-56.15,13-46.55,12-34.12h0l11-21.91V809l10.17-12.43a.39.39,0,0,1,.56-.11.4.4,0,0,1,.12.57l-10.06,12.42-11,21.81-11.86,34-13.11,46.88-14.23,56.15-15.82,59.2L746.87,1096l-14.13,55.36A.58.58,0,0,1,732.29,1151.53Z"/><path class="cls-3" d="M1025.36,1151.53a.48.48,0,0,1-.45-.45l1.69-55.81,2.6-82.14,2.26-57.84,2-43.27,1.81-29.6,1.58-18.64,1.47-11.41,1.36-9L1041,831l1.13-21.91,1.13-32.66,1.13-31.86.9-22.7.79-9.83c0-.23.23-.46.45-.34s.46.22.34.45L1046,722l-.9,22.71L1044,776.56l-1.13,32.65-1.13,21.92-1.24,12.31-1.36,9-1.47,11.41-1.58,18.53-1.81,29.6-2,43.27-2.26,57.84-2.6,82.14-1.69,55.81C1025.81,1151.42,1025.58,1151.53,1025.36,1151.53Z"/><path class="cls-3" d="M806.86,1151.53h0c-.34,0-.45-.22-.45-.56l9.37-50.84,13.79-72.65L842,967.83l11.3-53.89,10.28-43.38L873,839h0l8.7-20.56h0l7.91-12.88,7.34-9.83,6.67-12.88,6.21-19.32,5.76-19.77,5.31-15.36v-.11l5-8.59c.12-.11.23-.11.34-.23l21.47-3.16c.22,0,.45.11.45.34s-.11.45-.34.45l-21.24,3.16-4.86,8.36-5.31,15.26-5.76,19.77-6.21,19.43v.11l-6.78,13h0L890.24,806l-7.91,12.77-8.59,20.56-9.38,31.41-10.28,43.39-11.29,53.89-12.43,59.54-13.79,72.64-9.37,50.84C807.2,1151.42,807.08,1151.53,806.86,1151.53Z"/><path class="cls-3" d="M952.6,1151.53a.48.48,0,0,1-.45-.45l3.84-50.95,6.44-79.65,5.76-58.86,5.2-47.23,4.74-34.68,4.3-23.5,3.84-15.14,3.5-11.07,3.16-12.21L996,798.25l2.83-28.81,2.6-28.36,2.48-20.45h0l2.26-9.15c0-.22.34-.34.57-.34s.34.34.34.57l-2.26,9-2.49,20.33-2.6,28.36-2.82,28.92-3,19.66h0l-3.28,12.2-3.5,11.07-3.84,15.14L979,879.93l-4.75,34.69-5.2,47.22-5.76,58.86-6.44,79.65-3.84,51C953.05,1151.42,952.83,1151.53,952.6,1151.53Z"/><path class="cls-3" d="M880,1151.53h0a.48.48,0,0,1-.45-.45l6.22-49.26,10.16-76.48L905,965.91l8.24-50.84,7.46-39.43,6.89-27.91,6.22-18.3h0l5.76-12.31,5.31-11.41,4.86-16.5,4.51-24.4,4.18-24.18,4-17.85v-.11L966,714a.43.43,0,0,1,.8.34l-3.62,8.7-3.84,17.85L955.2,765l-4.52,24.41h0l-4.86,16.49h0l-5.31,11.41-5.76,12.32L928.54,848l-6.78,27.79-7.46,39.43-8.25,50.73-9.15,59.43-10.17,76.37L880.52,1151C880.41,1151.42,880.18,1151.53,880,1151.53Z"/><path class="cls-3" d="M1938.45,1001.38h-.23l-44.74-26.09-62.7,1.92-62.36-1.81-62-5.08-61.8-7.69c-.11,0-.22,0-.22-.11l-27.91-24.86-58.41-7.34-58.41-8.47-116.48-18.3L1325,895.18l-58.07-6.77L1209,884l-57.85-.9-57.73,1-57.62-1-57.39-2.72-57.28-4-57.17-5-57-5.54L750,860.16l-56.72-5.53-56.6-5.09-56.49-4.18L524,842.2c-.23,0-.45-.23-.34-.45s.23-.46.45-.34l56.27,3.16,56.49,4.18,56.6,5.08,56.71,5.54L807,865,864,870.56l57.05,5,57.28,4,57.39,2.71,57.51,1,57.73-1,57.85.91,58,4.4,58.07,6.89,58.19,8.36,58.18,9.16,58.3,9.15,58.41,8.47,58.52,7.34c.11,0,.23,0,.23.12l27.9,24.85,61.58,7.68,61.91,5.09,62.36,1.81,62.71-1.92h.22l44.74,26.09,66.88-8.47h.23l4.29,1.58a.42.42,0,0,1,.23.57.41.41,0,0,1-.57.22l-4.18-1.58Z"/><path class="cls-3" d="M399.57,1151.53c-.11,0-.23,0-.23-.11a.4.4,0,0,1-.11-.57l31.86-39.54,36.83-55.47L500.69,1004l29.14-53.89L555.93,893l23.84-48.36h0l22-33.55a.11.11,0,0,1,.12-.11l20.44-17.4a.42.42,0,0,1,.23-.12l11.52-2.14a.46.46,0,1,1,.23.9l-11.41,2.15-20.34,17.28-21.91,33.56L556.84,893.6l-26.1,56.94-29.26,53.89-32.77,51.86-36.83,55.47-32,39.55C399.91,1151.53,399.68,1151.53,399.57,1151.53Z"/><path class="cls-3" d="M1218.55,879.37h0l-16.38-1.7-6-.79h-.11l-5.54-1.92a.24.24,0,0,1-.22-.22l-5-9.38v-.11l-4.3-23.62-3.84-36.26-3.5-35.59-3.39-26-3.39-12.2a.46.46,0,1,1,.9-.22l3.39,12.31h0l3.39,26.1,3.5,35.7,3.85,36.27,4.29,23.61,4.86,9.26,5.31,1.81,5.87.79,16.27,1.7c.23,0,.34.22.34.45C1219,879.14,1218.78,879.37,1218.55,879.37Z"/><path class="cls-3" d="M2005.45,992.8h-.12l-48.47-23.73-63.15,6.1a.42.42,0,0,1-.34-.11l-40.22-27.91-36.27-28-56.6,1h-56.6l-56.38-1.24-56.15-2.49-55.92-3.72-55.81-4.86-55.59-5.76-55.47-6.33h0l-13.56-3.62-52.87-4.29h-.11l-10.06-2.48-35.14-3.05-15.13-1.13-22.71-2-10.4-1.13-5.87-.56-6-.79-4.63-.23-45-2.71-54.34-3.5-54.91-6-54.79-7.57-54.68-8.47-54.57-8.48-54.46-8.13-54.34-7.12-54.23-5.87-54.12-4.3c-.22,0-.45-.22-.34-.45a.34.34,0,0,1,.46-.34l54.11,4.29,54.23,5.88,54.35,7.12,54.45,8.13,54.57,8.47L983,855.87l54.8,7.57,54.79,6,55,3.5,44.29,2.71,4.63.23,6,.79,5.87.56,10.4,1.13,22.71,2,15.14,1.13,35.13,3h.11l10.06,2.49,52.87,4.29h.12l13.55,3.62,55.48,6.33,55.58,5.76,55.81,4.86,55.93,3.72,56.15,2.49,56.26,1.24h56.49l56.71-1c.12,0,.23,0,.23.11l36.38,28.13,40,27.79,63-6.1h.22L2005.22,992l4.18-.91a.62.62,0,0,1,.56.34.63.63,0,0,1-.33.57l-4.18.79Z"/><path class="cls-3" d="M1244.54,881.85h0l-3.39-.56-13.33-1.81-37.17-4.63-50.28-8-50.16-10.28L1040.05,844l-50-13.34-50-12.88L890,806.5l-49.94-9c-.22,0-.34-.23-.34-.57s.23-.34.57-.34l49.94,9,50,11.3,50,12.88,50.05,13.33,50,12.66L1140.6,866l50.27,8,37.17,4.63,13.33,1.81,3.28.56c.23,0,.34.23.34.45A.59.59,0,0,1,1244.54,881.85Z"/><path class="cls-3" d="M-38,1151.53c-.12,0-.23-.11-.34-.22s-.12-.46.11-.57L2,1125l65.53-49.82,57.62-49,51.4-44.52a.42.42,0,0,1,.34-.11l64.4,1.58,64.62,1,65,4.63,65.19,7,65.42,8,65.52,7.91,65.65,6.89,65.75,5.19,65.86,2.94,66.1.45,66.32-2.26,66.54-4.85,66.77-7.35,67.11-9.26,67.45-10.62,67.78-6.55,67.9-1.13,68,3,68.12,6,68.24,7.69c.23,0,.34.22.34.45s-.22.45-.45.34l-68.24-7.69-68.13-6-68-3.05-67.9,1.13-67.67,6.55-67.45,10.51-67.11,9.49-66.88,7.34-66.55,4.86-66.32,2.26-66.09-.45-66-2.94-65.75-5.2-65.64-6.89-65.53-7.91-65.41-8-65.19-7-65-4.63-64.52-1-64.28-1.59-51.18,44.4-57.62,49L2.56,1125.66l-40.22,25.76C-37.88,1151.53-37.88,1151.53-38,1151.53Z"/><path class="cls-3" d="M319.13,824.8c-.23,0-.34-.11-.45-.34a.6.6,0,0,1,.34-.56l17.85-3.39,12.2-2.15,9.83-1.92a.46.46,0,1,1,.22.9l-9.94,1.92L337,821.41l-17.85,3.39Z"/><path class="cls-3" d="M39.51,1151.53c-.11,0-.23-.11-.34-.22s-.11-.46.11-.57l39.21-25.64,61-48.36,53.67-48.58a.42.42,0,0,1,.34-.11l68.24,1.24,68.69,6,68.91,9.26,69.15,11.07,69.37,11.64,69.48,11.07,69.48,9.61,69.71,7.34,69.82,4.63,70,1.58,70.28-1.69,70.5-4.86,70.83-7.8,71.29-10.28,71.63-7.79,71.86-3.62,72-.56,72.2,1.47,72.41,2.6,72.65,2.82,73,2.15,73.21.9a.49.49,0,0,1,.46.45.49.49,0,0,1-.46.45l-73.21-.9-73-2.15-72.65-2.82-72.41-2.6-72.2-1.47-72,.57-71.86,3.5-71.51,7.79-71.29,10.29-70.84,7.79-70.61,4.86-70.28,1.69-70-1.58-69.82-4.63-69.71-7.34-69.59-9.61L537.74,1068l-69.37-11.64-69.14-11.07-68.92-9.26-68.57-6-68-1.24-53.43,48.47-61,48.35-39.21,25.65C39.73,1151.53,39.62,1151.53,39.51,1151.53Z"/><path class="cls-3" d="M2009.74,905.58h0l-8.59-1-40.78-7.45L1909,884.23l-51.52-9.83h-.11l-32.42-16-30.06-10.62-47.45-6.32a.49.49,0,0,1-.45-.45c0-.23.23-.34.45-.34l47.57,6.32h.11l30.17,10.62h0l32.42,15.93,51.52,9.83,51.4,12.88,40.79,7.46,8.47,1c.23,0,.34.23.34.46S2010,905.58,2009.74,905.58Z"/><path class="cls-3" d="M2009.74,905.8h0l-8.59-1.24-54.23-6.21h-.11l-38-14.12-33.67-12.66-1.13-.34-3.73-1.13-45.41-11.63-49.49-6.22h-.11l-28-10.62-47.56-2a.49.49,0,0,1-.46-.45.49.49,0,0,1,.46-.45h.11l47.56,2h.12l28,10.62,49.49,6.21h0l45.42,11.75,3.72,1.13,1.13.45L1909,883.55l38,14.12,54.23,6.21,8.48,1.25c.22,0,.33.22.33.45S2010,905.8,2009.74,905.8Z"/><path class="cls-3" d="M1988.5,913h-.11l-41.58-14.58-54.23-4.63h-.23l-35.13-19.32L1805.47,870h-.22l-30-17.62-49.6-1.59h-.23l-26-11.07-47.68.68H1650l-21.13.34-45.64.34a.46.46,0,1,1,0-.91l45.64-.33,21-.34h1.7l47.67-.68h.23l26,11.07,49.59,1.58h.23l30,17.63,51.75,4.52h.22l35.14,19.32,54.23,4.63h.11l41.58,14.57,21.12-.68a.46.46,0,0,1,0,.91Z"/><path class="cls-3" d="M2009.74,919.93h-.11L1988.5,913,1931.22,915H1931l-38.41-21.13-54.23-1.58c-.11,0-.11,0-.23-.12l-32.53-22.25-51.75-.91c-.11,0-.22,0-.22-.11l-27.8-18.41-49.59,1.46H1676l-24-11.86h-1.47l-4.07.23-41.91,2.26h0l-20.79-1.81-45.53.34a.46.46,0,0,1,0-.91l45.53-.33,20.79,1.8,41.91-2.26,4.18-.22h1.92l24,11.86,49.59-1.47c.12,0,.23,0,.23.11l27.9,18.42,51.75.9c.11,0,.22,0,.22.12l32.54,22.25,54.23,1.59h.23l38.41,21.12,57.28-1.92h.11l21.13,6.89a.42.42,0,0,1,.23.57A1.89,1.89,0,0,1,2009.74,919.93Z"/><path class="cls-3" d="M597.17,795.31c-.23,0-.34-.22-.45-.34s.11-.45.34-.45l9.83-1L634.34,791l7.23-1c.23,0,.45.11.45.34s-.11.45-.34.45l-7.23,1L607,794.29l-9.83,1Z"/><path class="cls-3" d="M2009.74,953.26h-.23l-35.92-16.39-60.22,6.56-60,3.84-59.66,1.24-59.31-1.36-59-3.61-58.75-5.76c-.12,0-.23,0-.23-.12l-25.53-21.24L1567.77,898l-21.24-16.61-19.43-15.82-18-15.59-16.61-8.81-45.19-1h-.22l-13.9-8.24-43.27-7.69L1346.67,815l-43.27-10.51c-.12,0-.23-.11-.34-.22l-7.91-16.84L1253.8,772a.25.25,0,0,1-.23-.23l-6.1-9.6-40-16.5a.41.41,0,0,1-.23-.56.42.42,0,0,1,.57-.23l40.11,16.5a.24.24,0,0,1,.22.22l6.1,9.61,41.47,15.25a.24.24,0,0,1,.22.23l7.91,16.83,43,10.51,43.28,9.26,43.38,7.68h.11l13.79,8.14,45.19,1h.22l16.84,8.93h.11l17.85,15.59,19.43,15.82,21.24,16.61,23.28,18.41,25.3,21.13,58.64,5.65,59,3.61,59.32,1.36,59.54-1.25,59.88-3.84,60.33-6.55h.22l36,16.5a.41.41,0,0,1,.23.56C2010,953.14,2009.85,953.26,2009.74,953.26Z"/><path class="cls-3" d="M77.81,862.08a.42.42,0,0,1-.34-.11c-.23-.23-.23-.45,0-.57l28.36-26.55,28-37.05,26.43-36.16c.12-.22.34-.22.57-.11s.22.34.11.57l-26.44,36.15-28,37.06h0L78.15,861.86C78,862.08,77.92,862.08,77.81,862.08Z"/><path class="cls-3" d="M733.2,787c-.23,0-.34-.11-.34-.22a.41.41,0,0,1,.22-.57l1.36-.56L768,771.13l39.32-16,39.54-14.46,39.66-12,39.88-9L931,718a.43.43,0,1,1,.34.8l-4.75,1.58-39.88,9-2,.56-37.62,11.41-.57.23-39,14.12-39.32,16-34.8,14.92C733.31,787,733.31,787,733.2,787Z"/><path class="cls-3" d="M223.78,839.94c-.12,0-.23,0-.23-.11-.23-.12-.23-.34-.11-.57l18.41-28.81,23.5-36.15h0l22.49-27L309.07,721l20.34-22h0L348.84,684H349l18.75-7.46h.11l18.08-1.35H386l17.18,1.69,29,.79L461.37,681l14.69-4.07h.22L504.87,680l28.47,4.63,12.54-5.87h.22l28,4.63,28,4.86,28,4.4,28,3,13,.34,8.93.12,8.81.11a.49.49,0,0,1,.45.45.48.48,0,0,1-.45.45L680.1,697l-9-.11-13-.34-28-3.05-28-4.41-28-4.86-27.79-4.63-12.54,5.88h-.23l-28.58-4.64-28.36-3.05-14.69,4.07h-.22l-29.27-3.27-29-.8-17.17-1.69-18,1.36-18.64,7.34-19.32,14.8L310,721.54l-21.24,26.32-22.48,27L242.76,811l-18.42,28.81C224.12,839.83,224,839.94,223.78,839.94Z"/><path class="cls-3" d="M388.72,812.71h-.22c-.23-.11-.23-.34-.11-.56l17.39-28.36h0l18.87-21.58,18-18.42a.4.4,0,0,1,.33-.11l33.33,3.5,33.22,2,15.36-9c.12,0,.23-.11.23,0l32.54,3.61,32.42,1.59,13-2.72,12.21-4.18,11.52-7.11,10.85-10.85,10.28-14.91v-.12l9.94-9.6a.42.42,0,0,1,.34-.11h9.6a.45.45,0,1,1,0,.9h-9.49l-9.83,9.49-10.28,14.91h0l-11,11h-.11l-11.64,7.12h-.11L603,743.34h0l-13,2.71h-.11l-32.54-1.58L525,741l-15.26,9c-.11,0-.22.11-.22,0l-33.33-2-33.1-3.5-17.74,18.3-18.87,21.58-17.4,28.36C389,812.6,388.84,812.71,388.72,812.71Z"/><path class="cls-3" d="M575.25,1151.53H575a.41.41,0,0,1-.23-.56l3.62-6.78,28.24-65.53L631.85,1019l22.49-57.17,20.22-58.18L693,854.17l16.94-35.92v-.12l15.71-21.35.11-.11,14.57-9.15h.23l8.59-1.36,1-.34h.12l4.29-.22,7.79-.68,15.48-4.18,43.95-9L866,765.82l44.28-2.37,44.4,1.24,44.52,4.52,44.62,7.23,44.63,9,44.63,9.83,44.62,9.6,44.74,8.93,44.74,7.91L1312,828.3l45,5.2,45.08,3.61,45.19,2.26c.11,0,.23,0,.23.12l14.8,13.33,15.81,16.83,49.15-4.86,49.48-5.19a.41.41,0,0,1,.34.11l21.58,17.06,23.5,19.43,25.65,21.92,28.13,24.4,30.95,26.89,34.35,29.15,38.19,31.07,69.25,1.69c.11,0,.23,0,.23.12l47,39.09h0l52.31,55.24,23.5,25a.4.4,0,1,1-.57.57l-23.39-25-52.31-55.25-46.88-39-69.26-1.69c-.11,0-.11,0-.22-.11l-38.3-31.07-34.35-29.15-31-26.89-28.14-24.4-25.64-21.92-23.5-19.43-21.47-17-49.26,5.2-49.37,4.86a.41.41,0,0,1-.34-.12l-15.93-17.06-14.68-13.22L1402,837.9,1357,834.29l-45-5.08-44.85-6.56-44.74-7.91-44.74-8.92-44.62-9.6-44.63-9.83-44.63-9-44.51-7.23-44.4-4.52-44.4-1.24-44.18,2.37-44.06,5.76-44,9-15.47,4.18h-.12l-7.79.68-4.3.22-1,.34h0l-8.48,1.36-14.34,9L711.17,818.7l-16.95,35.81L675.8,904l-20.22,58.29-22.48,57.17-25.2,59.77-28.24,65.52-3.62,6.78Z"/><path class="cls-3" d="M1989.74,902.53c-.11,0-.22,0-.22-.11L1960.25,883l-44.17-4.74c-.11,0-.11,0-.23-.12l-29.26-21.8-42.7-2.49c-.12,0-.23,0-.23-.11L1817.79,831h0L1794,804l-22.14-28.7c-.12-.22-.12-.45.11-.56s.45-.11.56.11l22.15,28.7,23.84,27,25.76,22.6,42.59,2.48c.11,0,.22,0,.22.12l29.27,21.91,44.17,4.75c.11,0,.11,0,.23.11L1990.08,902c.23.12.23.34.11.57C1990,902.42,1989.85,902.53,1989.74,902.53Z"/><path class="cls-3" d="M2009.74,803.11c-.11,0-.23,0-.23-.12l-13.22-10-40.55,3.16a.41.41,0,0,1-.34-.11l-27.68-21-38.87-.91c-.11,0-.22,0-.22-.11l-24.86-18-37.39-3.85h-.12L1803.67,741l-36.16-5.65c-.22,0-.34-.23-.34-.45s.23-.34.46-.34l36.26,5.65h.12l22.59,11.18,37.51,3.84c.11,0,.11,0,.23.12l24.85,18,38.87.9c.11,0,.22,0,.22.12l27.57,21,40.56-3.16a.43.43,0,0,1,.34.11l13.33,10.17a.39.39,0,0,1,.11.56C2010,803,2009.85,803.11,2009.74,803.11Z"/><path class="cls-3" d="M2009.74,845.59a.4.4,0,0,1-.34-.12l-24.63-23.27L1955.51,796l-40.33,2.26-40.45,1.92a.42.42,0,0,1-.34-.11l-24.74-26.55-38.75.34a.39.39,0,0,1-.34-.12l-22-24-37.4-.45-37.62,2-37.74,5L1638,764.69l-37.85,11.64-37.73,12.32-37.62,11.29-37.4,9.16-37.17,6.1-37.06,2.71h0l-30.39-.79a.46.46,0,0,1,0-.91l30.39.79,37-2.71,37.17-6.1,37.39-9,37.62-11.29,37.74-12.32,37.85-11.64,37.84-8.36,37.74-5,37.73-2,37.63.45a.4.4,0,0,1,.33.11l22,24,38.75-.34a.43.43,0,0,1,.34.11l24.74,26.55,40.22-1.92,40.56-2.26a.43.43,0,0,1,.34.11l29.37,26.33,24.63,23.27c.23.23.23.45,0,.56A1.08,1.08,0,0,1,2009.74,845.59Z"/><path class="cls-3" d="M1973.59,936.76h-.23L1931,915l-57,2.26c-.11,0-.23,0-.23-.12l-35.59-25-54.22.34c-.12,0-.23,0-.23-.11L1753.5,869l-51.74,1.59c-.11,0-.23,0-.23-.12L1675.89,852l-49.49,3.61h-.22l-21.92-12.88-47.45,3.51h-.11l-18.65-5-45.41-.11h-.12l-15.7-3.28-43.5-6h-.11l-6.89-2.6-1.24-.57-4.75-1L1378.53,816l-5.09-1.7-4.51-1.47-1.13-.45-30.85-10-41.57-14.92s-.12,0-.12-.11l-7.57-7.68-40-17.4a.42.42,0,0,1-.23-.57.42.42,0,0,1,.57-.22l40.11,17.4a.11.11,0,0,1,.11.11l7.57,7.68,41.46,14.8,30.84,10.06,1.13.45,4.52,1.47,5.31,1.69,41.47,11.64,4.74,1h.11l1.25.56,6.89,2.6,43.38,6,15.71,3.27,45.41.12h.12l18.64,5,47.45-3.5h.23l21.91,12.88L1676,851a.42.42,0,0,1,.34.11l25.76,18.42,51.74-1.58a.41.41,0,0,1,.34.11l30.17,23.39,54.23-.34c.11,0,.22,0,.22.11l35.59,25,57.06-2.26h.22L1974,935.63l35.93-5.2c.22,0,.45.12.45.34s-.12.45-.34.45l-36,5.31C1973.7,936.76,1973.7,936.76,1973.59,936.76Z"/><path class="cls-3" d="M1943,826.38a.42.42,0,0,1-.34-.11l-27.79-28-26.1-24.18-38.75-.56a.39.39,0,0,1-.34-.12l-23.39-21.24-37.51-2.48c-.11,0-.11,0-.22-.11l-21.24-14.47-36.27-3.5h0l-19.43-4.52-35.14-3.73c-.22,0-.34-.22-.34-.45s.23-.34.46-.34l35.13,3.73h0l19.43,4.52,36.27,3.5c.11,0,.11,0,.23.12l21.24,14.46,37.5,2.48c.12,0,.23,0,.23.12l23.5,21.24,38.75.56a.42.42,0,0,1,.34.11l26.21,24.29,27.68,27.91,41.8-4.07,24.63-3.39c.23,0,.45.12.45.34s-.11.45-.33.45L1985,822.31l-42,4.07Z"/><path class="cls-3" d="M406.12,784.24,371,783.79,335.85,782l-35.14-3.16-35.13-4-35-4.52-35-4.4-34.91-3.62c-.22,0-.34-.22-.34-.45s.23-.45.45-.34l34.91,3.62,35,4.4,35,4.52,35.14,4L336,781.19,371,783l35,.45,35-1.13,35.14-2.6,35.14-3.84,35.13-4.75,35.25-5.31,35.36-5.19,35.48-5.43L688,748.76l35.48-6.55,10-10.51a.37.37,0,0,1,.23-.11l34.69-3.73,8.69-3.16,8.14-2.49,7.68-4.74a.37.37,0,0,0,.23-.11l32-2.94,32.09-.34,32.2,2.49,24.62,4.06c.23,0,.34.23.34.57s-.22.34-.56.34l-24.63-4.07L857.13,715l-31.74.57-31.86,2.94-7.69,4.74h-.11l-8.25,2.49-8.7,3.16h-.11l-34.57,3.73L724,743.12c0,.11-.11.11-.22.11l-35.59,6.55-35.47,6.44-35.48,5.42-35.36,5.2-35.25,5.31-35.25,4.75-35.14,3.84-35,2.6Z"/><path class="cls-3" d="M1511.17,841.29h0l-34.35-3.39a.34.34,0,0,1-.34-.45c0-.22.23-.34.45-.34l34.35,3.39c.22,0,.45.23.34.46S1511.39,841.29,1511.17,841.29Z"/><path class="cls-3" d="M443,744.36h0l-33.44-4.75L376.18,734l-33.32-6.21-33.33-6.21-33.22-5.77c-.22,0-.34-.22-.34-.56s.23-.34.57-.34l33.21,5.76,33.33,6.22,33.33,6.21,33.33,5.65,33.1,4.74,16.84-15.13a.38.38,0,0,1,.33-.12l32.54,6.44,32.31,5.2,28.36-14.24h.34l31,7.46,30.84,5.2,30.73,2,10.62-6.66,10.17-11.19,9.6-15.7v-.12l9.26-10.16c.23-.23.46-.23.57,0a.31.31,0,0,1,0,.56l-9.26,10.06-9.61,15.7v.11l-10.17,11.19-.11.11L646.32,741a.39.39,0,0,0-.23.11l-30.84-2h0l-31-5.2-30.84-7.46-28.36,14.24h-.23l-32.53-5.2L460,729l-16.83,15.14A.24.24,0,0,1,443,744.36Z"/><path class="cls-3" d="M611.41,1151.53h0l-32.66-6.78L505,1128.26,431.32,1112l-73.44-14.8-73.21-11.75-72.53-7.12-56.26,47.34h0l-38,25.87c-.23.12-.46.12-.57-.11s-.11-.45.11-.57l38-25.75,56.49-47.34a.41.41,0,0,1,.34-.12l72.76,7.12,73.21,11.75,73.55,14.8,73.66,16.27L579.21,1144l32.53,6.78c.23,0,.34.23.34.57A1.6,1.6,0,0,1,611.41,1151.53Z"/><path class="cls-3" d="M496.28,801.64h-.23c-.22-.11-.22-.34-.11-.57l15.14-24.85v-.11l16-16.73.12-.11,15.36-9.71h0l14.58-6.11,13.89-5,13-5.53,12.32-7.46L608,715.1l11-13.79h0l10.62-8.81a.43.43,0,0,1,.34-.11l10.28.22a.46.46,0,1,1,0,.91l-10.16-.23-10.4,8.7-11,13.78h0l-11.75,10.4h0l-12.31,7.57h0l-13.11,5.53-13.89,5-14.58,6.1L527.8,760l-16,16.61-15.14,24.85C496.62,801.64,496.39,801.64,496.28,801.64Z"/><path class="cls-3" d="M426.12,807.85h-.23c-.22-.11-.22-.34-.11-.56l15.14-24.63h0l18-19.89,17.18-15.47L492.33,735l15.47-9.83,14.69-8.25,13.9-7.68c.11,0,.22-.11.34,0L566.89,718a.63.63,0,0,1,.34.57.61.61,0,0,1-.56.34l-30.06-8.81-13.78,7.68-14.69,8.25-15.36,9.71-16.27,12.32-17.06,15.47-18,19.78-14.92,24.29C426.35,807.85,426.23,807.85,426.12,807.85Z"/><path class="cls-3" d="M1764,734.87c-.23,0-.34-.11-.45-.34a.63.63,0,0,1,.34-.57l30.5-6.44,30.62-6.77,30.73-6.1,30.62-4.18h0l30.5-.91h0l30.28,2.37,30.28,3.28,30.28,3.62,1.69.22c.23,0,.34.23.34.45s-.23.34-.45.34l-1.7-.22L1977.31,716,1947,712.72l-30.28-2.37-30.39.91-30.62,4.18-30.62,6.1-30.61,6.78L1764,734.76C1764.12,734.87,1764.12,734.87,1764,734.87Z"/><path class="cls-3" d="M489.73,1151.53c-.12,0-.23,0-.23-.11-.22-.11-.22-.34-.11-.57l15.48-23.27,32.53-60.1,28.93-55.59,25.87-55.58,23.16-58L636.49,849l19.43-35.25a.41.41,0,0,1,.56-.23.42.42,0,0,1,.23.57L637.28,849.2l-21.13,49.37-23.16,58-25.87,55.7-29,55.59-32.54,60.1-15.47,23.27C490,1151.53,489.84,1151.53,489.73,1151.53Z"/><path class="cls-3" d="M1742.09,732.72h0l-30.61-5.53c-.23,0-.34-.23-.34-.57s.22-.34.56-.34l30.51,5.54c.22,0,.33.22.33.56S1742.32,732.72,1742.09,732.72Z"/><path class="cls-3" d="M413.13,677.36l-19.1-1h-2.37l-5.65-.46-8.47-.22-21.35-.23-14.35-.68-4.52-.34A.34.34,0,0,1,337,674c0-.22.23-.45.45-.34L342,674l14.35.68,21.24.23,8.47.22,5.65.45h2.26l19.1,1,9-.22,12.77-3.17,14.69-4.63h.11l27,.23,27.23,1.92,27.23,3.39c.22,0,.34.22.34.45s-.23.34-.46.34l-3.72-.46-23.5-2.93-27.12-1.92-27-.23L435.05,674l-12.88,3.17h-.12Z"/><path class="cls-3" d="M459.9,729.11h0l-32.65-7.35-32.54-7.68c-.22,0-.34-.34-.34-.56s.34-.34.57-.34l32.54,7.68,32.31,7.34,16-11.86h0l15.48-9.15L520,693h.33l29.38,7.69c.22,0,.34.33.34.56s-.34.34-.57.34L520.23,694l-28.58,14.12-15.37,9-16.15,12Z"/><path class="cls-3" d="M277.55,678.61c-.22,0-.33-.23-.45-.34s.12-.46.34-.46l4.86-.67,13.33-1.47,11.19-1.58c.22,0,.45.11.45.33s-.12.46-.34.46l-11.19,1.58-13.44,1.47-4.75.68Z"/><path class="cls-3" d="M101.31,703.8a.41.41,0,0,1-.34-.11c-.23-.23-.23-.46,0-.57l18.41-18.64L138.82,664l18.86-16.38s.12,0,.12-.11l18.53-8a.41.41,0,0,1,.56.23.42.42,0,0,1-.23.57l-18.41,7.9-18.76,16.27L120.06,685l-18.41,18.65A.43.43,0,0,1,101.31,703.8Z"/><path class="cls-3" d="M1239,758.82c-.23,0-.34-.23-.45-.34s.11-.45.34-.45l28-4.29L1298,747.3l31.19-7.46,31.29-7.8,31.41-7.34,31.41-6,31.41-3.84h0l31.4-.68h0l31.3,3.51a.48.48,0,0,1,.45.45c0,.22-.23.45-.45.34L1486.2,715l-31.3.68-31.41,3.84-31.4,6-31.41,7.34-31.3,7.8-31.18,7.46L1267,754.53l-28,4.29Z"/><path class="cls-3" d="M1322.94,794.75c-.22,0-.34-.12-.45-.34a.63.63,0,0,1,.34-.57L1350.4,788l33.89-9.38,34.12-11,34.23-12,34.35-12L1521.45,733a.41.41,0,0,1,.56.22.42.42,0,0,1-.22.57l-34.46,10.73-34.35,12-34.23,12-34.12,11-34,9.38-27.68,6Z"/><path class="cls-3" d="M1764,734.87c-.11,0-.23,0-.34-.23L1747.52,715,1732,698.49l-15-9.6-14.8-1.59c-.22,0-.34-.22-.34-.45s.23-.34.45-.34l14.92,1.59c.11,0,.11,0,.22.11l15.14,9.71.12.12,15.47,16.49,16.16,19.66c.11.23.11.45-.11.57C1764.24,734.87,1764.12,734.87,1764,734.87Z"/><path class="cls-3" d="M-26.24,857.79c-.23,0-.34-.11-.46-.34s0-.45.34-.57l25.42-7.56,32.88-25,30.39-33.9,28.58-33.89c.12-.11.23-.23.34-.23l34.8,2.72,34.57,2.37,25.2-27.79c.11-.12.22-.23.33-.12l34,3.5,34.12,4.75L288.4,747,322.63,752l34.23,4.41,34.24,3.27,34.12,2,34.12.56,34.23-.9,34.23-2.26,34.23-3.5,34.24-4.3,34.34-4.74,34.46-5,34.57-5.31,34.57-4.86,9.61-4h.11l9.15-2h0l32.76-3.39,32.77-1.35,6.66-6.22,6.44-10.73c.12-.11.23-.23.34-.23l31.18-2.37h0l31.3.68h0l31.41,4,31.4,7,4.52,1.35a.47.47,0,0,1-.22.91l-4.52-1.36-31.41-7-31.29-4-31.19-.68-31,2.49L826,715.21a.11.11,0,0,1-.11.11l-6.78,6.33a.35.35,0,0,1-.23.11L786,723.12l-32.77,3.39-9,2-9.6,4h-.11l-34.57,4.85-34.57,5.31-34.46,5-34.35,4.75-34.34,4.29-34.24,3.51-34.23,2.26-34.23.9-34.23-.57-34.24-2-34.23-3.39-34.23-4.41-34.23-5.08-34.12-5.2-34.12-4.74-33.78-3.5-25.2,27.79a.41.41,0,0,1-.34.11L125.94,760l-34.57-2.71L63,790.91,32.62,824.8h0l-33,25.08s-.12,0-.12.11L-26,857.68A.34.34,0,0,1-26.24,857.79Z"/><path class="cls-3" d="M47.53,702.44,21.66,702l-25.76-.11L-30,700.3l-3.28-.45-15.36-2.26h-1l-16.27-2.26-24.18-5.65c-.22,0-.34-.34-.34-.57s.34-.34.57-.34l24.18,5.54,16.15,2.26h1l15.36,2.37,3.28.34L-4,700.86l25.76.11,25.65.46L69.11,688a.34.34,0,0,0,.22-.11l25.09-2,20-17.52a.43.43,0,0,1,.23-.11l24.52-4.52L163.9,660l24.74-2.82,24.86-1.92,25-.91,25-.11,25.08.57,25.08.9,25.09,1,25.08.68,25.08-.12L403.3,656a.4.4,0,0,1,.11.79L389,658l-25.19.23-25.2-.68-25.08-1-25.08-.9-25.08-.56-25,.11-25,.9L188.53,658l-24.75,2.83-24.51,3.84-24.4,4.52-20,17.51a.39.39,0,0,0-.23.11l-25.08,2L47.87,702.33A.42.42,0,0,1,47.53,702.44Z"/><path class="cls-3" d="M-90,1070.53c-.12,0-.23,0-.34-.23s-.12-.45.11-.56l13.56-9.38c.11,0,.22-.11.34-.11l71.85,8.92,61.57-48.58a.43.43,0,0,1,.34-.11l68,5.42,67.78,2,47.57-44.85L283.2,934.5l38-51.4L356,841.52c.11-.11.23-.23.34-.23l55.59-1.92,29.48-26.77a.36.36,0,0,1,.23-.12l53.32-2L520,798.59h.22l51.18-3.39,54-4,9.27-.56,7-.68,49.37-2.71,42.15-1.24,16-.12,4.86-.45,11.86-1,.45-.12,11.3-3.84,10.51-6.44h.11l42.37-13.22,42.59-10.28,42.7-6.89,42.94-3.28,42.93.34,43,3.62,43,6.44,43,8.36,43,10.05,43.16,11.3,43.15,11.75,43.16,11.41c.11,0,.23.12.34.23l8.47,24.63,9,27.23,9.94,21,11.08,10.28,12.2,4.29,53,3.17,53.22,2,53.32.9,53.55-.22,53.78-1,53.89-1.58,54.12-1.69a.42.42,0,0,1,.34.11l30.5,26.43,33.44,28.25,37.06,28.7,41.35,27.79,46.32,25.42,70.39-6h.22l20.79,11.52c.23.12.23.34.23.57a.42.42,0,0,1-.57.23L1989,1024.54l-70.38,6h-.23L1871.91,1005l-41.35-27.79-37.06-28.7-33.44-28.24-30.39-26.33-53.9,1.7-53.89,1.58-53.77,1-53.56.22-53.43-.9-53.22-2-53.1-3.16h-.11L1342.26,888a.11.11,0,0,1-.11-.11L1331,877.56l-.11-.11-10-21.13h0l-9-27.23-8.36-24.4-42.93-11.41-43.16-11.75-43-11.3-43-10.05-43-8.36-43-6.44-42.93-3.62-42.93-.34-42.82,3.28-42.71,6.89-42.48,10.28L789,775.09l-10.51,6.44h-.11L767,785.37h-.12l-.56.11-11.86,1-4.86.45-16,.23-42.15,1.24L642,791.13l-7,.68-9.27.68-54.11,4.06-51.07,3.39-25.08,11.87h-.23l-53.21,2-29.49,26.78a.34.34,0,0,1-.22.11l-55.47,1.92L322.29,884l-38,51.4-42.59,48.7-47.79,45a.4.4,0,0,1-.34.12l-68-2-67.79-5.42L-3.76,1070.3a.42.42,0,0,1-.34.11l-72-8.92-13.44,9.26A1.12,1.12,0,0,0-90,1070.53Z"/><path class="cls-3" d="M411,677.25c-.22,0-.34-.23-.45-.34s.11-.45.34-.45l24.06-3.28,27.68-1.47,27.8.68,13.44-1.69H504l13,.67c.22,0,.45.23.33.46s-.22.45-.45.34L504,671.49l-13.44,1.69h-.11l-27.8-.68L435.05,674,411,677.25Z"/><path class="cls-3" d="M740.88,666.74c-.23,0-.34-.22-.45-.34s.11-.45.34-.45l24-3.5,24.06-1.36h.11L810.13,663c.23,0,.46.23.34.46s-.22.33-.45.33l-21.24-1.92-23.95,1.36-24,3.5Z"/><path class="cls-3" d="M267.05,832.71h-.23c-.22-.12-.22-.34-.11-.57l11.3-18.3,22.48-35.47h0l21.58-26,20.45-25.19L362,705.83h0l18.64-15.25h.11l18-8.7h.11L416,678.49h.12l16.38-.68,15.48-1.92H448l28.36,1,14-4.41h.22L518.42,675l27.91,3.73,12.2-.11a.48.48,0,0,1,.45.45.48.48,0,0,1-.45.45l-12.31.11h0l-27.91-3.73-27.79-2.37-14,4.41h-.11L448,676.8l-15.48,1.92-16.38.68-17.06,3.39-17.74,8.69-18.53,15.14-19.43,21.24L323,753.06l-21.58,26-22.48,35.48-11.3,18.3A1.23,1.23,0,0,0,267.05,832.71Z"/><path class="cls-3" d="M758.84,682.56h-.11a.62.62,0,0,1-.34-.57l6-19.2v-.11l6-11.53a.24.24,0,0,1,.22-.22l5.88-2.49a.43.43,0,0,1,.34.79L771,651.72,765.17,663l-6,19.21C759.29,682.45,759.07,682.56,758.84,682.56Z"/><path class="cls-3" d="M1650.24,840.28c-.11,0-.22,0-.22-.12l-16.73-13.78-.11-.11-17.4-23.16h0L1599.63,776l-15.14-24.63-14.58-16.49a.39.39,0,0,1,0-.57c.12-.22.46-.11.57,0l14.69,16.5h0l15.25,24.63,16,27,17.4,23.05,16.72,13.78c.23.23.23.45,0,.57C1650.47,840.16,1650.35,840.28,1650.24,840.28Z"/><path class="cls-3" d="M1235.61,757.46c-.23,0-.34-.11-.45-.33l-3.62-19.55-3.72-17.17-3.62-16.61-3.39-20-3.16-19.2-3.17-15.82-3-11.07-2.93-6.22-2.83-2.14a.41.41,0,0,1-.11-.57.39.39,0,0,1,.56-.11l2.94,2.26a.38.38,0,0,1,.11.22l3,6.33v.11l3,11.19,3.17,15.93,3.16,19.21,3.39,20,3.62,16.61,3.72,17.17,3.62,19.55c.11,0,0,.22-.34.22Z"/><path class="cls-3" d="M1881.62,1151.53c-.11,0-.22,0-.34-.22l-12.88-16.16-47.22-60.67-42.37-44.06-68.92-4.63c-.11,0-.22,0-.22-.12l-34.35-34.11-30.84-29.15-61.35-9.61c-.11,0-.22,0-.22-.11l-25.08-22.6L1535,912.47,1514.22,898l-19.1-13.33-17.28-14.24-48.92,4L1380,876.88l-48.81.57-48.58-1.58-48.47-4-48.35-6.44-48.24-9-48.13-11.63-48.13-13.22-48-13.22-48-12-47.91-9.71-47.79-6.78L802,786.5l-11.3,4.86h-.22l-49.71-3.05H728.45a.46.46,0,0,1,0-.91h12.2l49.6,3.05,11.3-4.85h.22L849.56,789l47.91,6.78,48,9.72,48,12,48,13.33,48,13.22,48.13,11.63,48.13,9,48.24,6.44,48.35,4,48.58,1.59,48.7-.57,48.92-2.48,49.14-4a.41.41,0,0,1,.34.11l17.4,14.35,19.09,13.33,20.91,14.47,22.82,17.62,25,22.48,61.34,9.61c.12,0,.23,0,.23.11l31,29.26,34.35,34,68.92,4.63a.43.43,0,0,1,.34.11l42.48,44.18h0l47.22,60.67,12.88,16.15c.11.23.11.45-.11.57S1881.62,1151.53,1881.62,1151.53Z"/><path class="cls-3" d="M-60.82,847.06c-.22,0-.34-.12-.45-.34a.63.63,0,0,1,.34-.57l21.69-5.76L-5.12,817,26.4,785.14,56.12,753.4h0l28.35-24.29,27-19.55a.38.38,0,0,0,.22-.11l32.54-1.36L169.09,694h.23l31.75-3.39,23.16-7.34h0l31-4.75,15.6-1.35,25.3-2,10.85-1.24,30.5-.34,4.75.23,18.64.45,3.95.11,12.88.45,8.48.23,5.65.45h0l1.69.34,22.6,2.37L446,683.69l15.48-3.05h.23L491,686l29.15,6.78,13.1-8.36c.12,0,.23-.12.34,0l28.7,5.53,28.7,5.88,28.69,5.31,28.7,3.84,28.58,1.35L705.52,704l28.58-6.9,28.58-10,28.7-11.41,28.81-11.07L849,655.22l5.2-6.55c0-.12.11-.12.22-.23l28.36-6.1a.6.6,0,0,1,.56.34.62.62,0,0,1-.33.56l-28.14,6.1-5.19,6.56c0,.11-.12.11-.23.11l-28.92,9.38-28.7,11.07-28.69,11.41-28.7,10h0l-28.59,6.9h-.11l-28.58,2.26h0l-28.7-1.36-28.69-3.84-28.7-5.31-28.7-5.88-28.47-5.53-13.1,8.36c-.12,0-.23.11-.34,0l-29.38-6.78-29.48-5.08-15.48,3.05h-.23l-30.05-5.54-22.6-2.49-1.69-.33-5.65-.46-8.47-.22-12.88-.45-4-.12L342,674.65l-4.74-.23-30.39.34L296.08,676l-25.3,2-15.6,1.36-30.84,4.85-23.16,7.35h-.11L169.43,695l-25,14.12h-.23l-32.54,1.35L84.81,729.9,56.46,754.07,26.85,785.82-4.67,817.68h0l-34.23,23.5H-39l-21.81,5.88Z"/><path class="cls-3" d="M128.87,855.3a.4.4,0,0,1-.33-.11c-.23-.23-.23-.45,0-.56l14.34-14.8,27-38,25.42-36.49h0l24.51-28.13,23.05-26.66h0l22-20.9H265l21.24-12.2h.12l9.15-1.47a.46.46,0,0,1,.22.9l-9,1.47-21.13,12.2-22,20.79L220.5,738l-24.4,27.79-25.42,36.5-27,38.07h0l-14.34,14.8A1.19,1.19,0,0,1,128.87,855.3Z"/><path class="cls-3" d="M1271.54,772.72c-.23,0-.34-.12-.45-.34l-4.52-18.19-4.75-20.68-4.52-16.83L1253,700l-4-20.11-3.85-19.32-3.72-16.16-3.62-11.3-3.61-6.43a.41.41,0,0,1,.22-.57.42.42,0,0,1,.57.23l3.61,6.55V633l3.62,11.41,3.72,16,3.85,19.31,4,20.12,4.29,16.72,4.52,16.83,4.75,20.67,4.52,18.19a.63.63,0,0,1-.34.57C1271.65,772.72,1271.54,772.72,1271.54,772.72Z"/><path class="cls-3" d="M-29.86,700.3-51.67,700a.49.49,0,0,1-.45-.45.49.49,0,0,1,.45-.46l21.7.34,24.06-2.82,22.82-4.52,24.18-7.12,3-.9,10.17-4,8-2.93,23.73-8.36,1.58-.57,22.25-7,42.94-14.58a.43.43,0,0,1,.33.79L110.23,662l-23.84,7.57L62.67,678,54.76,681l-10.17,3.95-3.05.91L17.36,693l-22.93,4.52-24.29,2.83Z"/><path class="cls-3" d="M668.35,789.44h-.23a.42.42,0,0,1-.23-.57l8.36-17.17,11.64-22.48v-.12l11.19-12.31a.38.38,0,0,1,.22-.11l10.62-4.52H710l7.79-1,10.06-1.47,5.19-.9,19.66-2.94,8.59-3.28h.11l31.75-5,7.23-8.47a.34.34,0,0,1,.22-.11l30.85-5.09,6-14.57a.43.43,0,0,1,.8.34l-6.11,14.8c0,.11-.22.22-.33.22l-31,5.09-7.23,8.47a.35.35,0,0,1-.23.11l-31.86,5L753,726.62h-.12l-19.65,2.94-5.2.9-10.06,1.47-7.79,1-10.51,4.4-11.07,12.32L677.05,772l-8.36,17.17C668.69,789.32,668.46,789.44,668.35,789.44Z"/><path class="cls-3" d="M580.68,683.35a.49.49,0,0,1-.46-.45.49.49,0,0,1,.46-.45l21.46-.34,6-.79,17-2.26,1.69-.23,3.62-.56,14.12-2.72,2-.45,7.23-1.35,23.28-5,23.38-5.2,23.39-5,23.5-4.41,23.5-3.27h0l23.61-.8h.11l23.62,3h0L830,656c.22,0,.34.34.34.56s-.34.34-.57.34l-11.86-2.82L794.32,651l-23.5.79-23.5,3.28-23.39,4.4-23.38,5-23.39,5.2-23.39,5L646.54,676l-2,.45-14.12,2.71-3.73.56L625,680,608,682.22l-6,.79h0Z"/><path class="cls-3" d="M364.77,675.22c-.22,0-.34-.12-.45-.34a.62.62,0,0,1,.34-.57l20.11-4.74L411,665.73l26.33-1.47,26.43.67,26.55,2.49L517,671.26c.22,0,.33.23.33.45s-.22.34-.45.34l-26.66-3.84-26.55-2.48-26.44-.68-26.32,1.47-26.1,3.84-20,4.86Z"/><path class="cls-3" d="M110.12,662.11c-.23,0-.34-.11-.45-.34a.41.41,0,0,1,.22-.56L129.44,655l23.39-8.36a.43.43,0,0,1,.33.79l-23.38,8.36-19.66,6.33Z"/><path class="cls-3" d="M730,787.06c-.11,0-.22,0-.22-.11-.23-.11-.23-.34-.12-.56L739.52,771l10.17-18.75c0-.12.23-.23.23-.23l36.83-9.15,37-8L861,728.54l17.86-2c.22,0,.45.11.45.34s-.12.45-.34.45l-17.74,2-37.06,6.33-36.94,8-36.61,9.15-10.16,18.64L730.6,787A2.49,2.49,0,0,0,730,787.06Z"/><path class="cls-3" d="M-49.41,697.81l-6.44-.34h0l-19.31-3.39c-.23,0-.34-.22-.34-.56s.22-.34.56-.34l19.32,3.39,6.21.34.91-.23h.11l33.22-.11H-5.8l25-2.83,25.08-3,25-2.59L89.9,673.52a.34.34,0,0,0,.22-.11l24.41-5.09L133.85,654a.11.11,0,0,0,.11-.12l23.95-6.44L182,642.34l24.29-3.5L230.67,637h24.51l24.63,1.58,24.75,2.94,24.74,4L354,649.8l24.74,3.84,5.65.56c.23,0,.34.23.34.45s-.23.34-.45.34l-5.65-.56-24.74-3.84-24.74-4.3-24.75-3.95-24.74-2.83-24.52-1.58H230.67l-24.41,1.81-24.06,3.5L158,648.33l-23.84,6.44-19.31,14.46a.43.43,0,0,1-.23.11l-24.4,5.08L69.56,688.89a.39.39,0,0,1-.23.11l-25.08,2.6-25,3-25,2.82h-10.4l-32.2.12-.9.22Z"/><path class="cls-3" d="M233,1133.23h0l-77.5-7.46-76.71.23-76.49-.23L-74,1121l-15.48,9.83c-.23.11-.45.11-.57-.12s-.11-.45.12-.56l15.7-9.94a.42.42,0,0,0,.23-.12l76.48,4.75,76.49.23,76.82-.23h0l77.28,7.46,51.63-47.57,45.42-49.37L370.42,989l35.82-50.5,32.08-54,29.26-44.74h0l27.12-29a.39.39,0,0,1,.34-.12l53.55-.67,53.78.9,53.77,2.6,18-19.55a.41.41,0,0,1,.34-.11l51.74,2.6,51.75,5.08,12.2-11.07a.41.41,0,0,1,.34-.11l49.59,6.1,9.15-7.46,8.59-9,7.91-14.12,7.34-15.14,6.78-13h0l6.44-8.81s0-.12.11-.12l6-4.29a.43.43,0,0,1,.23-.11l38.52-6.44L948,716.23l18.53-2.71,40.1-2.6,40.22.56,40.22,3.39,40.22,5.76h0l40.22,10.06,40.22,14.12a.24.24,0,0,1,.23.23l4.75,11.41v.11l5,24.18,5.08,33.33,5.54,34.34,6.1,23.05,6.89,8.92,3.16.68,13.11,1.25,11.64,1.24,29,3.27,3.84.34,10.73,1.25h.12l12.09,5.76.11.11,13.22,15.48v.11l14.12,29.72,64.17,8.58,64.51,10.51c.12,0,.23.11.34.22l22.82,42.82,68.13,8.36,68.58,8,68.8,6.77c.11,0,.23.12.34.23l37.73,49.6,73.33-1,74-3.39,74.56-6.21a.41.41,0,0,1,.34.11l39.55,34.68c.22.23.22.46,0,.57s-.46.23-.57,0l-39.43-34.57-74.34,6.21-74.11,3.39-73.66,1c-.12,0-.23,0-.34-.23l-37.85-49.6-68.58-6.66-68.58-8-68.12-8.36c-.12,0-.23-.12-.34-.23l-22.82-42.93L1416.6,949l-64.4-8.7c-.11,0-.22-.11-.33-.22l-14.24-29.94-13.11-15.37-12-5.76-10.62-1.24-3.84-.34-40.67-4.63-13.11-1.25h0l-3.39-.67a.26.26,0,0,1-.23-.23l-7.11-9.15a.11.11,0,0,0-.12-.11l-6.21-23.16h0l-5.54-34.35-5.08-33.22-4.86-24.06L1207,745.38l-40-14.13-40.22-10-40.22-5.76-40.22-3.39-40.11-.57-40.1,2.6-18.53,2.71-16.83,1.58-38.42,6.33-5.87,4.18-6.33,8.81-6.78,12.88-7.34,15.14-7.91,14.12V780l-8.59,9.15h0l-9.37,7.68a.43.43,0,0,1-.34.11l-49.6-6.1-12.2,11.07a.4.4,0,0,1-.34.12l-51.86-5.09-51.52-2.6-18,19.55a.42.42,0,0,1-.34.11l-54-2.6-53.78-.9-53.44.68-26.89,28.81-29.26,44.62-32.08,54-35.82,50.61-40.22,46.89-45.42,49.37-51.74,47.68A.42.42,0,0,1,233,1133.23Z"/><path class="cls-3" d="M661.12,691.15l-24.41-.23-19.2-1c-.23,0-.46-.22-.34-.45s.22-.45.45-.34l19.21,1,24.4.22,24.4-.9L710,687.64l24.4-2.48,22.26-2.6c.22,0,.45.11.45.34s-.12.45-.34.45L734.55,686l-24.4,2.48-24.41,1.81Z"/><path class="cls-3" d="M651.51,674.42c-.22,0-.34-.11-.45-.33a.62.62,0,0,1,.34-.57L669.59,669l7.46-4a.41.41,0,0,1,.56.22.42.42,0,0,1-.23.57l-7.57,3.95h-.11l-18.19,4.63Z"/><path class="cls-3" d="M1590.25,721.42h0l-18.53-3.61-28.81-8-28.81-9.94-28.69-10.4-28.81-6.89a.24.24,0,0,1-.23-.23l-8.92-11.41-8.59-7.45-8.25-3.28a.43.43,0,0,1,.34-.79l8.36,3.28a.11.11,0,0,1,.11.11l8.59,7.45h0l8.81,11.3,28.7,6.89h0l28.7,10.4,28.69,9.83,28.81,8,18.42,3.61c.22,0,.34.23.34.57S1590.48,721.42,1590.25,721.42Z"/><path class="cls-3" d="M1340.45,801.75c-.22,0-.33-.22-.45-.34s.12-.45.34-.45l18.08-2.15,34.8-7,35-9.49,35.14-11.52,35.36-12.55,35.47-12.54,35.59-11.29a.42.42,0,0,1,.57.22.42.42,0,0,1-.23.57l-35.59,11.3-35.47,12.54-35.37,12.54L1428.47,783l-35,9.6-34.91,7-18.08,2.15Z"/><path class="cls-3" d="M160.85,695.44c-.12,0-.23,0-.23-.11-.22-.12-.22-.34-.11-.57l9.6-13,18.08-24.29h0l17.74-18.42L206,639l17.51-8.47a.42.42,0,0,1,.57.22.42.42,0,0,1-.23.57l-17.4,8.47-17.62,18.42-18.19,24.29-9.61,13Z"/><path class="cls-3" d="M360.82,675.22c-.11,0-.23,0-.34-.23s-.11-.45.11-.57l13.33-9.94H374L389,657.59h.23l22.48-.9a.45.45,0,0,1,0,.9l-22.37.9-14.69,6.9-13.22,9.94A.57.57,0,0,0,360.82,675.22Z"/><path class="cls-3" d="M549.72,701.43a.4.4,0,0,1-.34-.12.37.37,0,0,1,0-.56l12.43-10.51h0l12-6.89H574l11.64.23a.48.48,0,0,1,.45.45.49.49,0,0,1-.45.45l-11.53-.23L562.26,691l-12.43,10.4C549.94,701.31,549.83,701.43,549.72,701.43Z"/><path class="cls-3" d="M2003.53,771.59c-.12,0-.23,0-.23-.12L1991,761.53l-31.86-.68c-.11,0-.22,0-.33-.22l-21.47-26.21-20.56-24.18-19.66-23-18.64-22-18.08-15.25-17.74-5.76-2.48.56-25.53,6-5.09,1.58-18.19,5.88-2.82.9-1.92.68-28.13,9.71-28,9.61-.57.11-27.34,8.25L1674.76,694l-27.57,4.18-27.45,1.7-27.23-1-27.11-3.5-27-5.54-27-7-26.89-7.69-19-5.31-4.52-1.13-3.39-1-26.89-7.46-26.88-7-12.77-2.82-1.92-.56-12.2-2.6-26.89-4.3-26.89-2.48-27-.57-27,1.36-27,3-27,4.52-26.89,5.2-26.89,5.19-26.89,4.52-26.77,2.83-11.41.34a.46.46,0,0,1,0-.91l11.41-.34,26.66-2.82,26.78-4.52,26.89-5.2,26.89-5.2,27-4.29,27-3.05,27-1.35,27,.56,27,2.49,27,4.29,12.2,2.6,1.92.56,12.77,2.83,27,6.89,26.89,7.46,3.39,1,4.51,1.13,19,5.31,27.11,7.68,26.66,7,27,5.54,27.12,3.5,27.23,1,27.34-1.69,27.56-4.18,27.68-6.55,2.15-.68,25.65-7.68,28-9.61,28.13-9.71,1.92-.68,2.82-.9,18.19-5.77,5.2-1.58,25.53-6,2.6-.56h.23l18,5.76a.11.11,0,0,1,.11.11L1879,664.6h0l18.64,22.14,19.66,23L1937.88,734l21.36,26.1,31.74.68c.12,0,.23,0,.23.11l12.54,10.06a.31.31,0,0,1,0,.56C2003.86,771.47,2003.75,771.59,2003.53,771.59Z"/><path class="cls-3" d="M566.67,718.6c-.12,0-.23,0-.34-.23s-.12-.45.11-.56l12.43-9.6,11.75-12.32h.11L602,688a.38.38,0,0,0,.22-.11l10.74.34h.34c.22,0,.33.22.33.45s-.22.34-.45.34H613l-10.51-.34-11.18,7.8-11.75,12.31h0l-12.43,9.6C566.89,718.6,566.78,718.6,566.67,718.6Z"/><path class="cls-3" d="M595.36,683c-.22,0-.34-.11-.45-.34a.61.61,0,0,1,.34-.56l16-3.5,21.92-4.75,21.92-4.63,22-4.3,22-3.61a.6.6,0,0,1,.56.34.62.62,0,0,1-.33.56l-22,3.62-22,4.29-21.91,4.63-21.92,4.75L595.36,683Z"/><path class="cls-3" d="M1551.72,721.42c-.11,0-.22,0-.33-.22l-8.82-11.75-10.84-12.88-10.4-9-10.16-4.74a.42.42,0,0,1-.23-.57.41.41,0,0,1,.56-.23l10.17,4.75s.12,0,.12.11l10.5,9h0l10.85,13,8.81,11.75c.11.23.11.45-.11.57C1552,721.42,1551.84,721.42,1551.72,721.42Z"/><path class="cls-3" d="M597.73,683.46H581.47A.49.49,0,0,1,581,683a.49.49,0,0,1,.46-.45h16.26l23.84-.9,23.84-1.93,23.84-2.82,23.84-3.5,23.84-3.84,23.72-3.84L747,654.2c0-.11.11-.11.23-.22l6.32-3.28h.23l23-2.49h0l23.16.12h.11l23,3.95h0L833.52,655c.23,0,.34.34.34.57s-.34.34-.57.34L823,653.18l-23.16-3.61-23-.23-22.94,2.49-6.1,3.16-6.44,11.53c0,.11-.23.22-.34.22l-24,3.84-23.95,3.84-23.84,3.51-23.84,2.82-23.84,1.92Z"/><path class="cls-3" d="M922.32,720.41h0a.39.39,0,0,1-.34-.57l3.28-13.44L929,685.5l3.5-21.81,3.39-17.4v-.11L939,640a.42.42,0,0,1,.57-.23.41.41,0,0,1,.22.57l-3.16,6.1-3.39,17.28-3.5,21.81-3.73,20.9L922.77,720C922.66,720.29,922.55,720.41,922.32,720.41Z"/><path class="cls-3" d="M1655.44,723.34a.42.42,0,0,1-.34-.11l-9.83-10.73-13-9.38L1619.51,700a.44.44,0,0,1-.34-.57c0-.22.34-.34.57-.34l12.88,3.17a.11.11,0,0,1,.11.11l13.11,9.49h.11l9.83,10.85a.37.37,0,0,1,0,.56C1655.66,723.23,1655.55,723.34,1655.44,723.34Z"/><path class="cls-3" d="M-74.37,1121h0l-15.71-1.7c-.22,0-.34-.22-.34-.45s.23-.34.46-.34l15.47,1.7,69.82-50.73c.12,0,.23-.11.34-.11l72.08,5.76,72,1.58,72.08.79,49.49-48.13,44.06-45.19L344.44,935l35-52.42,32.09-42.93c.11-.11.22-.23.34-.23h55.92l55.92,1.7,24.41-31.3.11-.11L571.07,795c.11,0,.11-.11.23-.11l51.4-1.81,51.52.34,16.72-6.55h37.4l5.65-.34,15.59-1.24.68-.12h0l2-.11.45-.11h1.81l47,.11L811.94,780l9.6-8.82,8.93-10.62,8.36-10.73c0-.11.11-.11.23-.11l41-12.54,41.23-9.38L962.66,722l41.46-2.15,41.57,1.36,41.58,4.4,41.69,6.9,41.69,10.28L1212.22,756l41.58,14.91c.11,0,.23.11.23.34l6.44,21,6.77,29.49,7.35,31.18,8.13,22.14,8.93,9.27,50.5,2.37,50.84.57,51-1,51.18-2.49,51.41-3.39,51.52-4,51.74-3.84a.42.42,0,0,1,.34.11l25.76,21.69,28,24.75L1734.64,946l34,28.25,37.74,28.7,42.25,28.13,69.82-1.92c.12,0,.23,0,.23.11l51.63,34.57,39.32-5c.22,0,.45.11.45.34s-.11.45-.34.45l-39.54,5a.41.41,0,0,1-.34-.11L1918.23,1030l-69.82,1.92c-.12,0-.23,0-.23-.11l-42.37-28.25L1768,974.83l-34-28.24L1703.23,920l-28-24.74-25.53-21.69-51.52,3.84-51.52,3.95-51.4,3.39-51.18,2.49-51.07,1-50.84-.56-50.61-2.37a.39.39,0,0,1-.34-.12l-9.15-9.49-.12-.11-8-22.26h0l-7.34-31.29-6.78-29.38-6.44-20.78L1212,757.13l-41.58-13.34-41.57-10.28-41.58-6.89-41.58-4.29L1004.12,721l-41.46,2.15-41.36,5.76-41.23,9.38-40.9,12.54-8.25,10.62L822,772.15h0L812.39,781a.11.11,0,0,0-.11.12l-10.51,5.08h-.22l-47.11-.11h-1.7l-.45.11-2,.11-.68.12h0L734,787.63l-5.77.34H691.06l-16.73,6.55h-.22l-51.63-.34L571.18,796l-22.59,14.69-24.18,31.4c-.11.12-.22.23-.34.23l-56.15-1.69h-55.7l-32,42.48-35,52.42L306,984.78h0L262,1030l-49.59,48.24a.43.43,0,0,1-.34.11l-72.2-.79-72-1.58-72-5.76L-74,1120.92A.43.43,0,0,1-74.37,1121Z"/><path class="cls-3" d="M409,677.14c-.23,0-.34-.12-.34-.23a.41.41,0,0,1,.22-.56l13.9-5.88,14.58-6h0l14-3.5h.12l13.44-.11a.45.45,0,1,1,0,.9l-13.44.11-13.9,3.51-14.57,6-13.9,5.88A.11.11,0,0,0,409,677.14Z"/><path class="cls-3" d="M714.55,732.27c-.22,0-.33-.11-.45-.34a.62.62,0,0,1,.34-.56l15.14-2.6,31.63-6.22,8-6.32,7.57-10.17L784,692.28l6.77-16.16V676l6.67-8.36a.4.4,0,0,1,.57-.12.41.41,0,0,1,.11.57l-6.55,8.25-6.78,16.15-7.23,13.9h0l-7.69,10.28-.11.11-8.13,6.44a.43.43,0,0,1-.23.11l-31.75,6.22-15.14,2.71Z"/><path class="cls-3" d="M1634.65,698.94c-.23,0-.34-.11-.45-.34a.61.61,0,0,1,.34-.56l14.91-2.71,23.39-6.22,23.61-7.57,23.61-8,23.73-8.7,47.79-20.45,24-9,23.84-6.77h0l23.72-3.73h0l23.5-.34h.12l13.55,1.92c.23,0,.34.23.34.45s-.22.34-.45.34l-13.56-1.81-23.5.34-23.61,3.73-23.84,6.78-23.84,9L1744,665.84l-23.72,8.7-23.61,8-23.62,7.57-23.5,6.21-15,2.71Z"/><path class="cls-3" d="M2009.74,749.22a.4.4,0,0,1-.34-.12l-9.94-9.94-22.15-23.27-21-24.52-19.77-25.76-19.09-20-28.36,2-28.47,2.26L1832,654.65l-28.69,7.57-28.7,9-28.7,9.15-28.58,8.48-28.47,6.89-28.24,4.86L1632.5,703l-28-.34-27.8-2.82-27.68-5.2-27.56-7.12-27.57-8.36-27.45-8.47-5.2-1.59L1439,663.47l-27.56-5.54-27.57-3.62c-.11,0-.23,0-.23-.11l-7-6.89-6.67-3.16-22.59-5.54-1.81-.56-2-.57L1324,634.2l-6.55-1.13-26.33-2.37h-26.32l-26.32,2.49-26.33,4.74-26.32,6.22-26.33,7.23-26.21,7.34-16.83,4.07a.63.63,0,0,1-.57-.34.64.64,0,0,1,.34-.57l16.84-4.06,26.21-7.35,26.32-7.23,26.33-6.21,26.43-4.52,26.44-2.49h26.44l26.43,2.38,6.56,1.13,19.54,3.27,2,.57,1.8.56,22.6,5.54h.11l6.78,3.16a.11.11,0,0,1,.11.12l6.89,6.77,27.46,3.62,27.57,5.54,22.36,5.64,5.2,1.59,27.46,8.47,27.45,8.36,27.57,7.12,27.56,5.19,27.8,2.83,27.9.34,28-2.37,28.24-4.75,28.36-6.89,28.47-8.48,28.7-9.26,28.7-9,28.81-7.57,28.8-4.74,28.59-2.26,28.58-2.15a.42.42,0,0,1,.34.11l19.32,20.11h0l19.88,25.76,20.91,24.52,22.14,23.27,9.94,9.95c.23.22.23.45,0,.56A.7.7,0,0,1,2009.74,749.22Z"/><path class="cls-3" d="M1052,713.06a.48.48,0,0,1-.45-.45l.34-12.65.56-17.85.45-10.28.34-6.1v-.12l.34-1.24a.63.63,0,0,1,.57-.34.63.63,0,0,1,.34.57l-.34,1.13-.34,6-.45,10.28-.57,17.74-.34,12.66C1052.47,712.84,1052.25,713.06,1052,713.06Z"/><path class="cls-3" d="M989.43,713.18h0a.49.49,0,0,1-.45-.46l1.13-12.65,2-23.72,1.92-17.63h0l1.81-7.68c0-.23.34-.34.57-.34s.33.34.33.56L995,659l-1.92,17.62-2,23.73L989.88,713C989.77,713,989.66,713.18,989.43,713.18Z"/><path class="cls-3" d="M-10.54,1013.81h0l-67.79-8.92-11.3,7.34c-.22.11-.45.11-.56-.11s-.11-.45.11-.57l11.53-7.45c.11,0,.22-.12.34-.12l67.67,8.93,58.63-40.56c.12,0,.23-.11.34-.11l64.06,5.31,48.92-44.63a.43.43,0,0,1,.34-.11l61,1.35,61.12.23,61.35.45,61.57,3.5,61.57,5.43,62,6.21,62.14,6.21,62.25,5.43,62.36,4,62.59,2.15,62.71.11,62.93-2.15,63.15-4.29,63.38-6.33,63.72-8,63.95-9,64.17-4.74,64.28,1,64.4,5.53a.48.48,0,0,1,.45.45.34.34,0,0,1-.45.34l-64.4-5.53-64.28-1-64.17,4.74-63.95,9-63.72,8-63.38,6.33-63.16,4.29-62.92,2.15-62.71-.11-62.59-2.15-62.47-4L592.31,957l-62.14-6.21-62-6.21-61.8-5.43-61.57-3.5-61.24-.45L222.42,935l-60.78-1.35-48.92,44.74a.42.42,0,0,1-.34.11l-64.06-5.31-58.63,40.56A.37.37,0,0,1-10.54,1013.81Z"/><path class="cls-3" d="M1472.75,837.34c-.11,0-.22,0-.22-.11l-10.74-7.91-.11-.11-12-14.24h0l-11.08-16.83-10.5-15.26-10-14.46-9.37-14.23L1400,739.84l-8.36-14.57-7.9-14.58-7.57-14.23L1369,681.2l-6.78-15.47-6.44-13.11-6.33-9.26-6-5.31-5.65-2-4.41-1.13-21.58-5.19-5.2-1.36-25.08-4.41-4.4-.34-20.79-1-15.93,1.24a.4.4,0,1,1-.11-.79l15.93-1.24h0l20.78,1,4.41.34h0l25.19,4.41,5.2,1.35,21.69,5.31,4.3,1h0l5.65,2a.11.11,0,0,1,.11.12l6.1,5.42.11.11,6.33,9.38h0l6.55,13.11,6.78,15.47,7.12,15.26,7.57,14.23,7.91,14.58,8.36,14.57,8.81,14.35,9.38,14.23,9.94,14.47,10.51,15.25,11.07,16.83L1462,828.87l10.73,7.9a.4.4,0,0,1,.12.57Z"/><path class="cls-3" d="M634.79,791.36h-.22a.42.42,0,0,1-.23-.57l5.31-11,12.65-24.29v-.11l12.2-13.56a.43.43,0,0,1,.23-.11L676.37,737a.41.41,0,0,1,.56.23.42.42,0,0,1-.22.57l-11.53,4.74-12.09,13.33-12.65,24.29-5.31,11C635.13,791.36,634.9,791.36,634.79,791.36Z"/><path class="cls-3" d="M-76.41,1061.15h0l-13.67-2c-.22,0-.34-.23-.34-.46s.23-.33.46-.33l13.44,2,65.64-47.23a.42.42,0,0,1,.34-.11l67.79,7.68,54.9-42.93a.43.43,0,0,1,.34-.11l64.06,4,45.53-47.22L263,884.9c.11-.11.23-.22.34-.22L321.5,883l58.41-.56,58.64,1.92,58.86,3.73,59.09,4.74,59.2,5.2,59.31,5.2,59.43,4.63L794,911.45l59.65,2.38,59.88.9,60.1-.68,60.33-2.37,60.45-4.07,60.67-5.42,60.89-2,61,2.93,61.12,6.67L1399.2,919l61.24,10.74a.24.24,0,0,1,.22.22l20.79,28.92,64.4,11.3,64.74,11,64.85,9.72,65.07,7.57,65.42,4.52,65.86.9,66.32-3.5h.23l50.38,22.93,20.57-3.16c.22,0,.45.11.45.34s-.11.45-.34.45l-20.79,3.16h-.22l-50.51-23-66.31,3.5-65.87-.91-65.53-4.52L1675,991.56l-64.85-9.72-64.73-11-64.63-11.3a.38.38,0,0,1-.22-.11l-20.79-28.92-61-10.74-61-9-61-6.67-61-2.94-60.45,1.92-60.67,5.43-60.44,4.06L974,915l-60.1.67-59.88-.9-59.77-2.37-59.65-3.62L675,904.11l-59.31-5.2-59.2-5.19L497.41,889l-58.86-3.73-58.64-1.92-58.41.57-57.84,1.58-40.79,49.37-45.75,47.34a.43.43,0,0,1-.34.11l-64.17-3.95L57.7,1021.27a.42.42,0,0,1-.34.11l-67.79-7.68-65.64,47.22C-76.29,1061.15-76.29,1061.15-76.41,1061.15Z"/><path class="cls-3" d="M1171.1,733.06c-.23,0-.34-.23-.45-.34l-1.47-11.52-2.26-15.48-2-17.62-2-16.27-1.92-12.66-1.92-8-1.92-3.73a.43.43,0,0,1,.79-.34l1.92,3.73v.12l1.92,8,1.92,12.65,2,16.27,2,17.62L1170,721l1.58,11.53c.12.22-.11.45-.45.56Z"/><path class="cls-3" d="M189,691.15c-.11,0-.23,0-.23-.12-.22-.11-.22-.34-.11-.56l6.78-10.06c.11-.11.22-.22.34-.22l25.42-1.36,25.42-1.58L272,675.44l25.53-2.14,25.53-2.6,25.54-2.94,25.53-3.39,25.65-3.5,25.76-1.25,25.87,1.13,26,3,18,3.17,7.34,1.24.79.11c.23,0,.34.23.34.46s-.23.33-.45.33l-.79-.11-7.35-1.24-17.85-3.16-25.87-3.05-25.87-1.13L400,661.66l-25.53,3.5L349,668.55l-25.54,2.94-25.53,2.6-25.53,2.14L246.82,678l-25.42,1.58L196.21,681l-6.67,9.83C189.2,691,189.09,691.15,189,691.15Z"/><path class="cls-3" d="M785.73,673h-.11a.63.63,0,0,1-.34-.57l3.16-11v-.11l5.54-11a.25.25,0,0,1,.22-.23l5.43-1.58c.22-.11.45,0,.56.34s0,.45-.34.57L794.54,651l-5.42,10.73-3.16,11C786.07,672.84,786,673,785.73,673Z"/><path class="cls-3" d="M2009.74,888.07c-.11,0-.23,0-.23-.12l-4.74-3.5-32.09-28.69-29.6-29.38-41.57,2.6-41.69,1.47-41.58.79-41.46.79a.41.41,0,0,1-.34-.11l-22.6-24.75h0l-20.9-28.35-19.66-27.68-18.64-20L1658.38,734l-36.61,6.78-36.72,11-36.6,12.77L1512,777.35,1475.58,789l-36.27,9.5-36,6.55-35.81,3.39a.39.39,0,0,1-.34-.12l-8.59-8.7h0l-8-10.62h0l-7.46-13.55h0l-7-16.5-6.67-18.41-6.21-18.42-6-15.82-5.65-16.38-5.31-18.64L1301.14,654l-5-13.9-4.75-9.38-4.52-5-25.53-.9-25.76,2a.42.42,0,0,1-.34-.11l-3.39-2.37-3.16.45-11.75,2.6-10.06,2-2.82.79-4.41,1.47-18,5.53-25.19,9.83-21.7,9.49-2.14.8-15.48,5.53h0l-9.38,2.26-10.62,2h-.11l-15.25.57-7.35.11h-.11l-19.54-2.82L1046,663.8h0l-19.32-5.53-27.79-6.44-1.35-.34-.34-.11-29.49-6.89-28.36-3.85L911,640.31l-28.13,3.05-4.4,6-4.75,16.84-5,18.75L863.46,702h0l-5.54,12.88V715l-5.87,7.69a.39.39,0,0,1-.23.11l-6.32,2.94h-.23l-33.89-1-33.78,1-33.67,2.93-6.67.91-9,1-7.34.9-19.54,2.94L676.82,738l-33.44,5-10.62,1.25h-.12l-29.48-.91-31.75-3.84-31.75-6-31.74-7.68-31.75-8.7-31.75-9-31.74-8.81-31.75-8-31.63-6.55L318,680.19,297.78,694l-21.13,21.8a.4.4,0,0,1-.34.12l-33.21-4.52-32.77-2.6-23.84,25.65a.41.41,0,0,1-.34.11l-33.66-1.81L126.39,760,98.94,795.31,69.56,830.9h0L37.81,857.68a.41.41,0,0,1-.34.11L-.82,850.11l-38.3-8.82-38.19-9.37L-89.85,835a.64.64,0,0,1-.57-.34.64.64,0,0,1,.34-.57l12.66-3h.22l38.3,9.38L-.6,849.2l38.07,7.69L69,830.22l29.14-35.7,27.46-35.36h0l26.32-27.46a.42.42,0,0,1,.34-.11l33.67,1.81,23.84-25.65a.41.41,0,0,1,.34-.11l33.1,2.6,33,4.52,21-21.69h.12l20.33-13.9c.11,0,.23-.11.34-.11l31.52,4.52,31.64,6.55,31.74,8L444.65,707l31.75,9,31.74,8.7,31.75,7.68,31.75,6,31.63,3.84,29.38.91,10.5-1.25,36.27-5.42,30.84-4.63,4.18-.57,6.33-.9,7.34-.9,9-1,6.67-.91,33.78-2.93,33.78-1,33.78,1,6.1-2.83,5.87-7.45,5.54-12.77L868,684.48l5-18.75,4.75-16.84a.11.11,0,0,1,.11-.11l4.63-6.22c.11-.11.23-.22.34-.22l28.36-3.05h0l28.47.34h0l28.47,3.84h0l28.47,7,.34.12,1.35.34,27.8,6.44,19.32,5.53,8.81,1.24,19.54,2.83,7.35-.11,15.25-.57,10.51-2,9.37-2.26,15.37-5.54,2.14-.79,21.7-9.49,25.3-9.83,18.08-5.53,4.41-1.47,2.82-.79,10.06-2,11.75-2.6,3.38-.45a.41.41,0,0,1,.34.11l3.39,2.49,25.65-2h0l25.76.9a.43.43,0,0,1,.34.11l4.74,5.2v.11l4.86,9.49h0l5,13.9,5.09,17.29,5.31,18.64,5.64,16.38,6,15.82,6.33,18.41,6.55,18.3,7,16.39,7.45,13.55,8,10.62,8.48,8.48,35.59-3.39,35.92-6.56,36.16-9.37,36.38-11.64,36.49-12.88L1584.38,751l36.71-10.95h0l36.72-6.78h0l36.49-2.83a.39.39,0,0,1,.34.12l18.76,20.22h0l19.66,27.68,20.9,28.24,22.48,24.63,41.24-.79,41.57-.79,41.69-1.47,41.8-2.6a.39.39,0,0,1,.34.12l29.83,29.48L2005,884l4.75,3.5a.39.39,0,0,1,.11.57C2010,888,2009.85,888.07,2009.74,888.07Z"/><path class="cls-3" d="M2005,884.56l-44.62-1.46c-.12,0-.12,0-.23-.12l-30.73-25.76-28.47-28.35-26.32-28.7L1834.51,802c-.11,0-.23,0-.34-.23l-23.27-28-38.75,1.7c-.12,0-.23,0-.34-.23L1750.91,749,1731,731.59l-36.26-.68h-.23l-18.19-7.57-34.68-.33h-.57l-35.36,3.72L1570.25,735h-.34L1556,725.6l-34.23,8.25h-.34l-12.32-8.13-11.64-5.54-32.19,4.18a.41.41,0,0,1-.34-.11l-10.28-8.7-9.72-9.72h0l-8.93-12.2-29.48.23-29.72,2.82-29.71,4.41-29.71,5.42-29.6,5.54-29.6,5.08-29.49,3.73-29.49,1.69-29.37-1h0L1140.6,717h0l-29.15-8.7h0l-29.15-12.43-29.15-13.33L1024,669.91l-29.15-10.74-29.14-7.79-29.15-4.3-29-.56-29,3.28-28.7,6.55-5.42,16.38-5.77,17.06c0,.11-.22.23-.33.34L808,697.59l-30.17,9.26-30.16,9.94-30.06,9.15-30.05,6.56h-.11l-30.05,1.92h0L627.33,732h0l-30.16-5.53-30-7.68-13,7.68c-.11,0-.22.11-.33,0l-31-8.81-31-9.61-30.95-9.49-30.73-8.7-16.84,9.38-17.73,14.8a.43.43,0,0,1-.34.11l-32.54-7.57-32.54-6.89-32.31-5.53-32.2-3.62-32.31-.9-22.82,19.09a.43.43,0,0,1-.34.11l-32.65-.22-24.86,24.06a.41.41,0,0,1-.34.11l-33.55-1.46L91.59,757.46a.39.39,0,0,1-.34.12l-34.79-3.05-34.58-3L-8.73,780.62l-32.77,29.6h0L-77,832.14c-.12,0-.23.12-.34,0l-12.65-3c-.23,0-.34-.34-.34-.56s.34-.34.56-.34l12.43,3,35.25-21.81,32.76-29.6,30.84-29.26a.43.43,0,0,1,.34-.11l34.69,3,34.57,3,27.23-26.1a.41.41,0,0,1,.34-.11l33.55,1.47,24.86-24.07a.41.41,0,0,1,.34-.11l32.65.23,22.82-19.1a.41.41,0,0,1,.34-.11l32.08.9,32.31,3.62,32.43,5.54,32.54,6.89,32.31,7.57,17.62-14.58h.12l17.06-9.37c.11,0,.22-.12.33,0l31,8.69,31,9.49,31,9.61,30.85,8.81,13-7.68c.11,0,.22-.12.34,0l30.16,7.68,30.06,5.54,30,2.37,29.94-1.92,30-6.55,30-9.16,30.17-9.94,30.27-9.26,30.06-7.35,5.65-16.83,5.53-16.61c0-.11.23-.22.34-.34l28.92-6.66h0l29-3.28h0l29.15.57h0l29.15,4.29h0l29.14,7.91,29.27,10.73L1053.26,682l29.15,13.34,29.15,12.42,29.15,8.59,29.15,4.52,29.26,1,29.37-1.7,29.49-3.73,29.6-5.08,29.71-5.54,29.72-5.42,29.82-4.52,29.83-2.82,29.83-.34c.11,0,.22.11.34.22l9,12.32,9.61,9.71,10,8.59,32.09-4.18h.22l11.75,5.65h0l12.21,8,34.23-8.25h.34l13.89,9.38,35.37-8.13h0l35.36-3.73h.56l34.8.34h.23l18.19,7.57,36.37.67c.12,0,.23,0,.23.12l20,17.51h0l20.79,26.1,38.75-1.7c.11,0,.22,0,.34.23l23.27,28,40.11-1.81a.43.43,0,0,1,.34.11l26.43,28.81,28.36,28.25,30.62,25.64,44.4,1.47,4.74-.23a.52.52,0,0,1,.46.34c0,.23-.12.46-.34.46Z"/><path class="cls-3" d="M1111.67,719.5a.48.48,0,0,1-.45-.45l-.56-11.07-1.7-26-.79-9.82-.79-5.65-.79-1.59a.43.43,0,1,1,.79-.33l.79,1.58v.11l.79,5.76.79,9.83,1.7,26,.56,11.18C1112.13,719.28,1112,719.5,1111.67,719.5Z"/><path class="cls-3" d="M1603.36,840.84c-.12,0-.23,0-.23-.11l-9.83-7-.11-.11-16.27-20.22h0l-15-25-14.12-24.18-13.44-18-12.88-12.43a.47.47,0,0,1,0-.56c.22-.23.45-.23.56,0l13,12.42h0l13.56,18.08h0l14.12,24.29,15,25L1594,833.16l9.83,6.89c.22.11.22.34.11.57A.63.63,0,0,1,1603.36,840.84Z"/><path class="cls-3" d="M1201.94,739.84l-12.54-.34a.49.49,0,0,1-.45-.45.48.48,0,0,1,.45-.45l12.54.34L1232,737l30.27-4.06,30.28-5.54,30.39-6.21,30.51-6.1,30.5-5.31,30.62-3.62,30.62-1.24h0l30.5,2h0l30.39,6.1h.11l11.41,4.3,12.09,1.35c.23,0,.34.23.34.45s-.22.34-.45.34l-12.2-1.47h-.11l-11.42-4.4-30.27-6.1-30.39-2-30.51,1.25-30.5,3.61-30.51,5.31-30.5,6.1L1292.78,728l-30.39,5.53-30.28,4.07Z"/><path class="cls-3" d="M1956.75,969.07h-.22L1913,943.43l-39.2-26.1L1817,919.25a.41.41,0,0,1-.34-.11l-32.88-26.55-54,1.24a.42.42,0,0,1-.34-.11l-27.79-23.05L1650,873.83a.41.41,0,0,1-.34-.11l-23.5-18-49.49,4.74a.43.43,0,0,1-.34-.11l-19.77-14.12-47.34,3.84-47.33,3.39L1414.79,856l-47,1-46.78-.68-46.66-2.6-46.54-4.86-46.33-7.11-46.32-9.27-46.32-11.18-46.21-11.75-46.2-11-46.1-9-46.1-6.21-46-2.94-45.87.56-43.27,3.84-2.6.23-4.4.34a.5.5,0,0,1-.45-.34.49.49,0,0,1,.34-.45l13.67-1.24,36.49-3.28,45.87-.57,46.09,2.94,46.1,6.22,46.21,9,46.2,11,46.21,11.75,46.32,11.19,46.32,9.26,46.44,7,46.55,4.85,46.66,2.6,46.77.68,47-1,47.11-2.48,47.34-3.39,47.45-3.84a.43.43,0,0,1,.34.11l19.77,14.12,49.48-4.74a.41.41,0,0,1,.34.11l23.61,18,51.64-3.16a.4.4,0,0,1,.33.11l27.8,23,54-1.24a.42.42,0,0,1,.34.11l32.88,26.55,56.82-1.92c.12,0,.23,0,.23.11l39.32,26.1,43.38,25.54,52.76-8.82a.47.47,0,0,1,.23.91l-52.88,8.92Z"/><path class="cls-3" d="M1796.21,1151.53c-.11,0-.23-.11-.34-.22l-6.1-9.15-42.14-66.66a.52.52,0,0,1,.11-.57.5.5,0,0,1,.57.12l42.14,66.65,6.1,9.15c.11.23.11.46-.11.57A.37.37,0,0,1,1796.21,1151.53Z"/><path class="cls-3" d="M1725,729.67c-.11,0-.22,0-.34-.22L1717.8,721,1703,705.16l-14.35-9.38-14.12-1.92c-.22,0-.34-.23-.34-.45s.23-.34.45-.34l14.24,1.92a.37.37,0,0,1,.23.11l14.46,9.49.11.11,14.91,15.82,6.9,8.47c.11.23.11.46-.12.57A.41.41,0,0,1,1725,729.67Z"/><path class="cls-3" d="M350.43,817.23l-36.05-.68-36-2.14-36-3.39-36-4.18-36-4.41-35.92-3.95-35.82-3.17-35.92-4.18-35.93-5.08L-9.3,780.51l-35.81-5.65-35.59-5.31-9,6.44c-.22.12-.45.12-.56-.11s-.12-.45.11-.57l9.26-6.55a.43.43,0,0,1,.34-.11l35.82,5.42L-9,779.72,27,785.26l35.93,5.08,35.81,4.18,35.81,3.16,35.93,4,36,4.4,36,4.18,36,3.39,36,2.15,36,.68,8.81-.23a.46.46,0,1,1,0,.91Z"/><path class="cls-3" d="M309,825.59h-.22c-.23-.11-.23-.34-.23-.56l5.42-9,21.58-34.57h0l20.68-24.63,19.54-23.39,18.64-19.88c.23-.23.46-.23.57,0s.22.45,0,.56L376.3,734l-19.55,23.39L336.08,782l-21.36,34.46-5.42,9C309.3,825.59,309.07,825.59,309,825.59Z"/><path class="cls-3" d="M-16,967.38l-63.84-5.54-10,5.09a.42.42,0,0,1-.57-.23.41.41,0,0,1,.23-.56l10.17-5.2h.22l63.72,5.53,55.7-37.39a.43.43,0,0,0,.23-.11l60.44,1.92,46.89-42.26a.34.34,0,0,1,.22-.11l57.62-2,40.11-36.27a.43.43,0,0,0,.23-.11l55-5L335,821.52a.34.34,0,0,0,.22-.11l13.33-2.82.23-.34c0-.12.23-.23.23-.23l8.36-1.69,1.58-.23,1.47-.23,7-1.35,50.62-7L468.83,803a.4.4,0,0,1,.11.8L418.1,808.3l-50.5,7-7,1.35-1.58.23-1.58.23-8.13,1.69-.23.34c0,.11-.23.11-.23.23L335.4,822.2l-34.57,23.61a.42.42,0,0,1-.23.12L245.81,851,205.7,887.28a.35.35,0,0,1-.23.11l-57.62,2-47,42.26a.43.43,0,0,1-.34.11L40,929.87l-55.7,37.51Z"/><path class="cls-3" d="M-78.55,1004.89h0l-11.53-1.58c-.22,0-.34-.23-.34-.46s.23-.34.46-.34l11.29,1.59,62.48-37.4c.11,0,.23-.11.23,0L48,972.46l52.31-41.35a.42.42,0,0,1,.34-.11l60.67,1.92,43.83-46.21a.43.43,0,0,1,.34-.11l57.85-1.81,37.28-39.43a.42.42,0,0,1,.34-.11l55.36-3.73,32.09-25.42a.38.38,0,0,0,.22-.11l53.1-3.28,27.57-9.6h.11l51-4.41a.52.52,0,0,1,.46.34.5.5,0,0,1-.34.45l-51,4.3-27.56,9.6h-.12l-53.1,3.27L356.53,842.2a.39.39,0,0,0-.23.11L301.05,846l-37.28,39.43a.42.42,0,0,1-.34.11l-57.84,1.81L161.75,933.6a.41.41,0,0,1-.34.11l-60.67-1.92L48.43,973.14a.41.41,0,0,1-.34.11l-63.94-5.76-62.48,37.4Z"/><path class="cls-3" d="M612.87,689.11c-.11,0-.22,0-.34-.22s-.11-.46.12-.57l8.7-6.55h.11l8.93-3.5a.41.41,0,0,1,.56.22.42.42,0,0,1-.23.57l-8.92,3.5-8.59,6.55Z"/><path class="cls-3" d="M-90,932c-.23,0-.34-.12-.34-.23a.42.42,0,0,1,.22-.57l9.27-4.29h.22l60.11.68,53.1-34a.38.38,0,0,1,.22-.11l57.28-2.6,45.76-28.81a.37.37,0,0,0,.23-.11l54.68-6,39.65-18h.11l52.43-8.7,25.87-4.18,6.21-1.36,34.69-5.87,8-1.25,10.05-1.8a.46.46,0,1,1,.23.9L358,817.57l-8.13,1.24-34.57,5.88L309.07,826l-25.87,4.18-52.31,8.7-40,17.85h-.11l-54.57,6L90.46,891.57a.34.34,0,0,0-.22.11L33,894.28l-53.22,34c-.11,0-.11.11-.22.11l-60.11-.68-9.15,4.3Z"/><path class="cls-3" d="M714,732.38c-.23,0-.34-.22-.45-.34s.11-.45.34-.45l6.66-1,9-1.81,8.93-4.52,8.36-8.36,7.9-12.43,7.57-16v-.12l7.23-9.15a.41.41,0,0,1,.57-.11.39.39,0,0,1,.11.57L763,687.76l-7.57,16h0l-8,12.54v.11L739,724.81a.12.12,0,0,0-.12.12l-9,4.52h-.12l-9,1.8L714,732.38Z"/><path class="cls-3" d="M-79.91,961.84l-10.17-.79c-.22,0-.45-.22-.34-.45a.34.34,0,0,1,.46-.34l10,.68,59.2-33.33h.23l60.33,1.47L89.9,891a.38.38,0,0,0,.22-.11l57.4-2.26,42.93-32.54a.38.38,0,0,1,.22-.11l54.8-5.76,37.17-20.9h.11l25.87-4.18L319,823.9l16.38-2.38L388.27,816l29.94-8.36c.23-.12.45.11.57.34s-.12.45-.34.56l-29.94,8.36h-.11l-52.88,5.54-16.38,2.37L308.74,826l-25.88,4.07L245.81,851h-.23l-54.68,5.76L148,889.31a.39.39,0,0,0-.23.11l-57.39,2.26L40.19,929.76a.39.39,0,0,0-.23.11l-60.33-1.47-59.2,33.33A.42.42,0,0,1-79.91,961.84Z"/><path class="cls-3" d="M-90,904.67c-.23,0-.34-.11-.34-.22a.42.42,0,0,1,.22-.57l8.7-4.06h.23l56.83-3.28L27,873.61h.11l54.34-5.54,44.86-13h0l52-8.14c.22,0,.45.12.45.34s-.12.45-.34.45l-52,8.14-44.85,13h-.12L27.19,874.4l-51.4,23h-.23l-56.83,3.28L-90,904.67Z"/><path class="cls-3" d="M679.31,737.47c-.12,0-.23-.12-.34-.23s-.12-.45.11-.56l7.79-5.09,9.38-11.3,8.93-15.93v-.11L713.76,694c.23-.23.46-.23.57,0s.22.45,0,.57l-8.59,10.28-8.92,15.93v.11l-9.49,11.3-.12.11-7.79,5.2Z"/><path class="cls-3" d="M599.66,794.07h-.23a.42.42,0,0,1-.23-.57l4-7.68L616.94,761v-.12L630.16,747a.38.38,0,0,1,.23-.12L643,742.1a.43.43,0,0,1,.34.79l-12.54,4.74-13,13.79-13.67,24.85L600.22,794A4.59,4.59,0,0,0,599.66,794.07Z"/><path class="cls-3" d="M-90,749c-.12,0-.34-.11-.34-.23a.48.48,0,0,1,.11-.56l7.91-4.75c.11,0,.22-.11.22,0l34.35,1.7,31.63-16.38h.23l33.33-.57,29-14.57h.23l32.42-2.26,26.89-9h.12l31.52-4.18L160.51,695l11-1.92,17.4-2.6.79-.12,34.57-6.77a.46.46,0,1,1,.22.9l-35.36,6.89-17.4,2.6-11,1.92-22.82,3.16-31.52,4.18-27,9h-.11l-32.43,2.26-29,14.58h-.23l-33.33.56-31.63,16.27h-.23l-34.34-1.69-7.8,4.63A.34.34,0,0,1-90,749Z"/><path class="cls-3" d="M1141.05,725.15c-.23,0-.34-.22-.45-.34l-.79-8.13-1.59-14.46-1.47-15.48-1.46-13.44-1.36-9.61-1.36-5.08-1.35-1.36a.37.37,0,0,1,0-.56.36.36,0,0,1,.56,0l1.36,1.47a.38.38,0,0,1,.11.22l1.36,5.2h0l1.35,9.6,1.47,13.45,1.47,15.47,1.58,14.47.79,8.13c.23.23.12.45-.22.45Z"/><path class="cls-3" d="M342.18,674.65a.41.41,0,0,1-.34-.11c-.23-.23-.23-.45,0-.57l6.44-6h0l15.25-10.17h.11l14.92-4a.47.47,0,0,1,.22.91l-14.8,4-15.14,10.17-6.32,6C342.4,674.54,342.29,674.65,342.18,674.65Z"/><path class="cls-3" d="M-80.81,769.44h0l-9.27-1.24c-.22,0-.34-.23-.34-.45s.23-.34.46-.34l9,1.24,33.11-23.27c.11,0,.22-.12.34-.12L-13,747.63l30.39-19.09a.39.39,0,0,0,.23-.11l33.44.11,28-16.95h.23l32.53-1.8,25.88-11.41h.11l12.88-1.92,9.94-1.25,8.93-.79L189,690.69l4.74-.79,30.85-6.1a.47.47,0,0,1,.22.91L194,690.81l-4.75.79-19.43,3.73h0l-8.92.79-9.94,1.24-12.77,1.92-25.87,11.41H112L79.5,712.5l-28,16.83h-.22l-33.44-.11-30.51,19.09a.38.38,0,0,0-.22.12l-34.35-2.38-33.1,23.28A.88.88,0,0,1-80.81,769.44Z"/><path class="cls-3" d="M705.4,695.55c-.11,0-.22,0-.22-.11-.23-.11-.23-.34-.12-.57l4.41-7L716.59,670v-.11l6.89-11.08a.39.39,0,0,1,.23-.11l6.77-3.73a.42.42,0,0,1,.57.23.41.41,0,0,1-.23.56l-6.66,3.73-6.89,11-7.12,17.85v.11l-4.52,7A.39.39,0,0,1,705.4,695.55Z"/><path class="cls-3" d="M377.77,675.67c-.12,0-.23,0-.34-.23s-.12-.45.11-.56l7.12-5.2,14.91-8.81h.11l14.46-4.41c.23-.11.46,0,.57.34s0,.45-.34.57L400,661.77l-14.91,8.81-7,5.09Z"/><path class="cls-3" d="M-90,927.84a.49.49,0,0,1-.46-.46.49.49,0,0,1,.46-.45h9.15l56.26-30.39h.23l57.05-2.94,48.58-25.53h.23L136,862.19l42.37-15.25h.11l7.91-1.35,44.18-7.46a.61.61,0,0,1,.56.34.6.6,0,0,1-.34.56l-52.42,8.7L136,863h-.11l-54.46,5.87L32.84,894.39h-.22l-56.83,3.05-56.26,30.28h-.23Z"/><path class="cls-3" d="M680.21,696.68c-.11,0-.23,0-.23-.11a.4.4,0,0,1-.11-.57l5.2-6.32L692.64,674v-.11l7.34-9.94.11-.12,6.33-3.5h0l.9-.34a.42.42,0,0,1,.57.23.41.41,0,0,1-.23.56l-.9.34-6.21,3.39-7.35,9.83-7.57,15.82v.11l-5.2,6.44Z"/><path class="cls-3" d="M1480.21,674.09a.4.4,0,0,1-.34-.12l-6.1-5.65-7.68-5.19c-.23-.12-.23-.34-.12-.57s.34-.22.57-.11l7.68,5.2h0l6.21,5.65c.23.22.23.45,0,.56A.24.24,0,0,1,1480.21,674.09Z"/><path class="cls-3" d="M1313.9,790.91c-.22,0-.33-.12-.33-.23l-3.73-7h0l-6.22-16.49-5.76-19.43-5.53-19.66L1287,711.71,1282,695l-9.15-38.3-4.29-15.25-4.18-10.74-4.07-6-3.95-2.37c-.23-.11-.23-.34-.11-.56s.33-.23.56-.12l4.07,2.38.11.11,4.18,6.1v.11l4.18,10.74,4.29,15.36,9.16,38.3,5,16.61,5.19,16.38,5.54,19.77L1304.3,767l6.22,16.39,3.72,6.89a.41.41,0,0,1-.22.56A.12.12,0,0,1,1313.9,790.91Z"/><path class="cls-3" d="M693.65,788.08a.3.3,0,0,1-.34-.34.41.41,0,0,1,.23-.56l8.36-2.83,37.85-13.67,38-13.67,38.19-12.76,38.3-11.08,29.37-6.78,3.39-.9,1.58-.34a.47.47,0,1,1,.23.91l-1.47.22-3.39.91L854.65,734,816.35,745l-38.41,12.88-38,13.67-37.73,13.67-8.36,2.82Z"/><path class="cls-3" d="M1848.86,750.12c-.12,0-.23,0-.34-.23l-5.2-6.1-18.41-22.37-17.52-21-16.83-18.19-16.27-11-16-1.92a.48.48,0,0,1-.45-.45.34.34,0,0,1,.45-.34l16.15,1.92c.12,0,.12,0,.23.11l16.5,11,.11.12,16.83,18.3,17.51,21L1844,743.34l5.2,6.1a.39.39,0,0,1,0,.57C1849.08,750,1849,750.12,1848.86,750.12Z"/><path class="cls-3" d="M304.89,1151.53c-.11,0-.22,0-.33-.22a.49.49,0,0,1,0-.57l6.1-4.86,47-49.37,41.12-51.74,36.6-48.7L467.92,944l29.15-55.58,26.55-46.78a.43.43,0,0,1,.79.34l-26.55,46.66-29.15,55.59L436.18,996.3l-36.61,48.81L358.33,1097l-47,49.49h0l-6.21,5C305,1151.53,305,1151.53,304.89,1151.53Z"/><path class="cls-3" d="M750.37,786.5c-.23,0-.34-.11-.34-.23a.41.41,0,0,1,.23-.56h.11l7-3.16,40.68-17.06,40.78-15.14,7.68-9.38,7.35-7.34h0l6.78-4.75h.11l6.44-2.15a.41.41,0,0,1,.56.23.4.4,0,0,1-.22.56l-6.33,2.15-6.78,4.75-7.23,7.34-7.79,9.38a.43.43,0,0,1-.23.11l-40.9,15.25L757.6,783.56l-7.23,3.17C750.59,786.5,750.48,786.5,750.37,786.5Z"/><path class="cls-3" d="M217.34,685.72c-.12,0-.23,0-.23-.11-.23-.11-.23-.34-.11-.57l3.84-5.87L238,654.77h0l16.84-17.52.11-.11,16.61-7a.41.41,0,0,1,.56.22.42.42,0,0,1-.22.57l-16.5,7-16.72,17.4-17.17,24.4-3.84,5.88C217.56,685.61,217.45,685.72,217.34,685.72Z"/><path class="cls-3" d="M0,714.53H0l-21.24-5.08-3.28-.68-5.76-1.69-6.89-2.26-11-3.73-6.22-2-28.69-6.89-7-1.24c-.22,0-.34-.23-.34-.57s.23-.33.57-.33l7,1.24,28.81,7,6.22,2,1.92.67L-30,706.28l5.76,1.7,3.28.68L.19,713.74,24.6,711l22.93-9.38h.23l25.76,1.47,20.9-17a.38.38,0,0,0,.22-.11l25.2-1.69,25.3-1.36,25.31-1.24,25.19-1.24,17.63-24.75h0l17.28-18.41.12-.12,17.06-8H248l24,1,24.17,3.16,24.29,4.86,24.41,6.1,24.4,6.44,15.48,3.84,19,2,8,.34,2.6-.12L439.57,658,465,661.21,490.52,666l12,2.71,1.13.12,13.79,2.93,14.23,2.6,2.71.45,24.41,4,34,6.21,11.53,2,9,1.58,27.34,4.29L668,695.78l12.31.45,6,.34,27.91-2.37,27.9-6.44L770,678.38l28-10.51,28.13-10.17,28.24-8.58c.23-.12.45,0,.57.34s0,.45-.34.56l-28.25,8.59-28.13,10.17-28,10.5-28,9.38-28,6.55h0l-28,2.38h0l-6-.34-12.32-.46-27.34-2.93L613,689.56,604.17,688l-27.45-5-18.19-3.28-24.4-4-2.71-.45-14.24-2.6-13.78-2.94-1.13-.22-12-2.71-25.42-4.75L439.57,659l-25.2-1.13-2.6.11-8-.34-19.09-2h0l-15.48-3.84-24.4-6.44-24.63-6.56-24.29-4.85-24.07-3-24-1L231,637.71,213.83,656l-17.62,24.85c-.11.12-.23.23-.34.23l-25.42,1.24-25.31,1.25-25.3,1.35-25.09,1.7-20.9,16.94a.38.38,0,0,1-.33.12l-25.88-1.47-22.93,9.37H24.6L0,714.53Z"/><path class="cls-3" d="M701.11,734.3c-.23,0-.34-.11-.45-.34a.61.61,0,0,1,.34-.56l6.78-1.36,30.84-7.9,31-8.14,30.85-7.12,6.78-12.2,6.44-15.36,6.21-16.39a.11.11,0,0,1,.11-.11l6-7.45a.4.4,0,0,1,.57-.12.41.41,0,0,1,.11.57l-5.88,7.34-6.1,16.38-6.44,15.37h0l-6.89,12.43c0,.11-.22.22-.34.22l-31,7.12-31,8.13-30.84,7.91-6.78,1.36Z"/><path class="cls-3" d="M656.48,695.21a.43.43,0,0,1-.34-.11.37.37,0,0,1,0-.56l4.52-4,8.14-13.1v-.12l7.91-8.25.11-.11,7.68-3.39a.42.42,0,0,1,.57.23.41.41,0,0,1-.23.56l-.22.12-7.35,3.27-7.79,8.14-8.14,13.22a.11.11,0,0,1-.11.11l-4.52,4.07C656.71,695.1,656.6,695.21,656.48,695.21Z"/><path class="cls-3" d="M524.64,799.38c-.23,0-.34-.11-.45-.34a.61.61,0,0,1,.33-.56l6.22-1L567,791.24l36.38-5.64,36.5-5.88,36.49-8.25L712.86,762l10.62-19.43c0-.11.23-.23.34-.23l35.59-6,9-8.14a.34.34,0,0,1,.22-.11l34.8-2.26,34.91-.34,6.66-.56h.12l17.4,1.69,1.58.11,3.16-.11,11.41.11,7.35-.9h.79l1-.11,4.52-1a.63.63,0,0,1,.57.34.62.62,0,0,1-.34.56l-4.63,1-1,.23h-.9l-7.35.9h0l-11.41-.11-3.16.11-1.7-.11-17.4-1.7-6.66.57-34.91.34L768.9,729l-9,8.14a.39.39,0,0,1-.23.11l-35.47,6-10.62,19.32c0,.11-.23.22-.23.22l-36.6,9.49-36.61,8.36-36.49,6-36.38,5.65L531,798.48l-6.32.9Z"/><path class="cls-3" d="M186.27,846.27h0l-6-.68-37.06-5.09-37-5L69.22,831l-37.06-6-37-7.24L-41.95,810-79,802l-11.07-2.26c-.22,0-.34-.23-.34-.57s.23-.34.57-.34l11.07,2.26,37.06,8,37.05,7.79,37.06,7.23,37.06,6,36.94,4.52,37.06,5,37.06,5.08,5.87.68c.23,0,.34.23.34.45S186.49,846.27,186.27,846.27Z"/><path class="cls-3" d="M731.84,690.58h-.23a.41.41,0,0,1-.22-.56l2.48-4.52,6.67-19.21a.41.41,0,0,1,.56-.23.42.42,0,0,1,.23.57l-6.67,19.21h0l-2.48,4.63A.42.42,0,0,1,731.84,690.58Z"/><path class="cls-3" d="M564.63,796.67h-.22a.42.42,0,0,1-.23-.57l2.49-4.52,14.68-25.42v-.11l14.13-14.35.11-.11,13.56-5.54a.43.43,0,1,1,.33.79L596,752.38l-14,14.24-14.69,25.3-2.48,4.52C565,796.55,564.86,796.67,564.63,796.67Z"/><path class="cls-3" d="M753,786.16c-.12,0-.23-.11-.34-.23s-.11-.45.11-.56l4.52-2.94,10.39-11.18,9.72-13.9,9-14.35L795,731.48c.11-.11.22-.23.33-.23l35.93-3.39L864,726.51a.45.45,0,1,1,0,.9l-32.76,1.36-35.7,3.39-8.47,11.41-9,14.23-9.72,14h0l-10.39,11.3-.11.11-4.64,2.94Z"/><path class="cls-3" d="M592.54,685.5c-.23,0-.34-.12-.34-.23a.41.41,0,0,1,.22-.56l5.2-1.92h.11l9.5-.68,17.85-2.94,1.8-.34,3.62-.45,21-4.75,3.62-.67,6.78-1.59,7.45-2,9.61-2.26,5.87-1.47,8.47-2,6-2h.12l5.08-.68,2.26-.45.9-.34h.12l22.93-5,23-4a.61.61,0,0,1,.56.34.63.63,0,0,1-.34.57l-23,4L708,661l-.9.34H707l-2.38.45-5.08.68-6,2-8.59,2L679.08,668l-9.6,2.25-7.46,2-6.78,1.58-3.61.68-21.13,4.74-3.62.45-1.8.34-18,2.94-9.49.68-5.08,1.92C592.65,685.5,592.65,685.5,592.54,685.5Z"/><path class="cls-3" d="M1438.07,662.34c-.11,0-.23,0-.34-.23l-3.28-3.84-7-7.46-6.78-5.08a.39.39,0,0,1-.11-.57.39.39,0,0,1,.56-.11l6.78,5.08h0l7,7.46,3.28,3.84a.38.38,0,0,1,0,.57C1438.29,662.22,1438.18,662.34,1438.07,662.34Z"/><path class="cls-3" d="M1574.77,721.54c-.11,0-.22,0-.34-.23l-2.93-3.84L1560,703.91l-11.07-9.37-10.85-4.86a.42.42,0,0,1-.22-.57.41.41,0,0,1,.56-.22l10.85,4.85a.11.11,0,0,1,.11.12l11.19,9.49h0l11.52,13.55,2.94,3.85c.11.22.11.45-.12.56C1574.88,721.54,1574.77,721.54,1574.77,721.54Z"/><path class="cls-3" d="M1202.51,744.13c-.23,0-.34-.22-.45-.34l-.57-4.29-3-17.4L1195.5,706l-2.71-19.1-2.6-18.19L1187.71,654l-2.49-10.06-2.37-5.2-2.26-1.58c-.23-.11-.23-.34-.11-.56s.34-.23.56-.12l2.37,1.59a.38.38,0,0,1,.12.22l2.48,5.42v.12l2.49,10.05,2.6,14.8,2.6,18.19,2.71,19.1,2.93,16.15,3.06,17.4.56,4.29a.76.76,0,0,1-.45.34Z"/><path class="cls-3" d="M1714,1151.53c-.22,0-.34-.11-.34-.22l-2.14-3.84-37.17-72.88L1640.86,1019,1610.36,982l-27.45-29-61.24-10.85-61.23-11.3c-.12,0-.23,0-.23-.11l-19.09-18-17.51-10.4-16-6.78-14.68-7h-.12L1379.43,877s0-.12-.11-.12l-12-19.88-11-22.82-10.16-19.1-9.61-12.65-9-5.42L1287.47,780a.42.42,0,0,1-.23-.57.42.42,0,0,1,.57-.22l40.1,17.06h0l9.16,5.53.11.11,9.6,12.66h0l10.28,19.2,11,22.83,12,19.77,13.22,11.41,14.57,7,16,6.78h0L1441.46,912h.11l19.09,18,61.12,11.3,61.35,11c.12,0,.23,0,.23.11l27.56,29.15,30.51,37.17h0l33.44,55.59,37.17,73,2.15,3.84a.42.42,0,0,1-.23.57C1714.07,1151.53,1714.07,1151.53,1714,1151.53Z"/><path class="cls-3" d="M1557.83,841.18h-.23l-4.07-2.37a.11.11,0,0,1-.11-.11l-15.14-17h0l-14-22L1511.17,777l-12.43-18.3-11.87-14.24-11.29-11.07-10.62-9-32.09,6.89-32.31,8.7-32.31,9.49-32.2,9.38L1304,767.41l-29.6,6.55a.61.61,0,0,1-.56-.34.6.6,0,0,1,.34-.56l29.48-6.56,32.09-8.58,32.2-9.38,32.31-9.49,32.31-8.7,32.43-7a.41.41,0,0,1,.34.12l10.84,9.26,11.3,11.19,12,14.23,12.42,18.3L1525,799.15l14,22L1554,838l4,2.37c.22.11.22.34.11.57C1558.16,841.18,1557.94,841.18,1557.83,841.18Z"/><path class="cls-3" d="M320.37,674.65a.43.43,0,0,1-.34-.11c-.22-.23-.22-.45,0-.57l2.72-3.05h0L338.45,657a.11.11,0,0,0,.11-.12l15.25-7.11H354l14.91.67a.46.46,0,1,1,0,.91l-14.8-.68L339,657.82l-15.7,13.67-2.6,3A.41.41,0,0,1,320.37,674.65Z"/><path class="cls-3" d="M244.68,681.2c-.12,0-.23,0-.23-.11-.22-.11-.22-.34-.11-.56l1.92-2.94,16.83-22.94h0l16.38-15.81a.42.42,0,0,1,.23-.12l16.16-5.53a.41.41,0,0,1,.56.22.42.42,0,0,1-.22.57l-16.05,5.53-16.27,15.71-16.72,22.93-1.92,2.94A2.24,2.24,0,0,0,244.68,681.2Z"/><path class="cls-3" d="M392.23,676.23c-.23,0-.34-.11-.45-.34a.62.62,0,0,1,.33-.56l3.73-.91,26.89-4.18,27-1.92,14-3.5h.12l13.44-1.13h.11l13,1.58c.22,0,.33.23.33.46s-.22.33-.45.33l-13-1.58-13.44,1-14,3.5h-.12l-27,1.92L396,675l-3.73.9C392.34,676.23,392.23,676.23,392.23,676.23Z"/><path class="cls-3" d="M1460.78,668.66a.41.41,0,0,1-.34-.11l-2.37-2.6-7.35-7.34-7.23-5.09c-.22-.11-.22-.34-.11-.56s.34-.23.56-.11l7.23,5.08h0l7.46,7.46L1461,668a.36.36,0,0,1,0,.56C1461,668.66,1460.89,668.66,1460.78,668.66Z"/><path class="cls-3" d="M700.43,787.86h-.22c-.23-.12-.23-.34-.23-.57l1.58-2.6,11.3-22.59c0-.12.23-.23.23-.23l36.6-9.72,9.49-15.7c.11-.11.23-.23.34-.23l35.7-4.85,8-5.54h.12l7.68-2,7.23-2.83h.22l33,1,33.11,3.5,1.69.34c.23,0,.34.23.34.56s-.23.34-.56.34l-1.59-.34-33-3.5-32.87-.9-7.23,2.82h0l-7.57,1.92-8.14,5.54a.34.34,0,0,0-.22.11l-35.59,4.86-9.49,15.59a.25.25,0,0,1-.23.23l-36.6,9.71-11.19,22.37-1.58,2.6A.39.39,0,0,1,700.43,787.86Z"/><path class="cls-3" d="M634,692.5c-.11,0-.34-.11-.34-.22a.42.42,0,0,1,.23-.57l2.6-1.47,8.58-10.17.12-.11,8.36-6.1h.11l8.13-2.6,7.46-2,9.6-2.37,3-.68a.46.46,0,1,1,.23.9l-3,.68-9.6,2.37-7.46,2-8,2.48-8.36,6-8.7,10.17-.11.11-2.72,1.58Z"/><path class="cls-3" d="M1426.77,829.09h-.23l-2.71-1.35-6.89-1c-.22,0-.34-.23-.34-.45s.23-.34.45-.34l7,1h.11l2.83,1.35a.41.41,0,0,1,.22.57A.86.86,0,0,1,1426.77,829.09Z"/><path class="cls-3" d="M178.58,847.51a.38.38,0,0,1-.33-.12c-.23-.22-.23-.45,0-.56l1.8-1.92,50.28-75.13h0l23.39-27.68,22.14-26.89c.11-.11.45-.23.56,0a.31.31,0,0,1,0,.56l-22.14,26.89-23.39,27.68-50.38,75.13h0l-1.81,2Z"/><path class="cls-3" d="M1412.65,655.67c-.11,0-.23,0-.34-.23l-1.58-2-6.44-7.34-6.33-5a.41.41,0,0,1,.45-.68l6.33,5h0l6.55,7.46,1.58,2c.12.23.12.45-.11.56C1412.87,655.56,1412.76,655.67,1412.65,655.67Z"/><path class="cls-3" d="M1691,725c-.23,0-.34-.23-.46-.34s.12-.45.34-.45l27.12-3.84,29.71-6,29.83-7.12,29.94-7.45,30-6.78,29.94-4.86h0l29.83-1.58h0l29.6,1.69,29.6,2.49,29.6,2.71c.11,0,.22.11.34.22L2008,719.16l1.7,1.7c.22.22.22.45,0,.56s-.45.23-.57,0l-1.69-1.69-21.58-25.31-29.49-2.71-29.6-2.37-29.6-1.7-29.71,1.59-29.94,4.85-29.94,6.78-29.94,7.46-29.83,7.12-29.71,6L1691,725Z"/><path class="cls-3" d="M1388.92,649.91c-.11,0-.22,0-.34-.23l-1.58-1.81-6-6.21-5.87-4.07c-.23-.11-.23-.34-.11-.56s.34-.23.56-.11l5.88,4.06h0l6.1,6.33,1.58,1.81a.37.37,0,0,1,0,.56C1389.15,649.91,1389,649.91,1388.92,649.91Z"/><path class="cls-3" d="M956.67,716h0c-.34,0-.45-.23-.45-.56l.33-2.15L959.49,691l2.83-22.93,2.59-17.51v-.12l2.49-6.78a.43.43,0,0,1,.79.34l-2.48,6.78-2.6,17.51-2.83,22.94-2.93,22.26-.34,2.14A.36.36,0,0,1,956.67,716Z"/><path class="cls-3" d="M270.78,678.15c-.12,0-.23,0-.23-.11-.23-.11-.23-.34-.11-.56l1.24-1.7,16.38-20.56h0l16-13.33a.42.42,0,0,1,.23-.12l15.82-3.61a.46.46,0,0,1,.22.9l-15.7,3.62-15.93,13-16.38,20.56-1.13,1.7A.61.61,0,0,1,270.78,678.15Z"/><path class="cls-3" d="M296.31,675.78c-.11,0-.23,0-.23-.11a.41.41,0,0,1-.11-.57l1.24-1.58L313.26,656l.11-.11,15.7-10.4a.35.35,0,0,0,.23-.11l15.36-1.58c.23,0,.46.11.46.34s-.12.45-.34.45l-15.37,1.69-15.48,10.28L298,674l-1.24,1.58C296.53,675.78,296.42,675.78,296.31,675.78Z"/><path class="cls-3" d="M394.15,676.35c-.23,0-.34-.12-.34-.23a.42.42,0,0,1,.22-.57l1.93-1L411,666h0l14.46-6.1h.12l14-2.15c.22,0,.45.12.45.34s-.12.45-.34.45l-13.9,2-14.35,6.1-15,8.59-1.92,1A.86.86,0,0,1,394.15,676.35Z"/><path class="cls-3" d="M1082.19,715.55a.49.49,0,0,1-.46-.45v-1.81l-.22-17.74-.23-11.75-.22-9.6-.23-5.54-.23-1.24a.47.47,0,0,1,.91-.23l.22,1.25v.11l.23,5.65.23,9.6.22,11.75.23,19.66C1082.64,715.44,1082.41,715.55,1082.19,715.55Z"/><path class="cls-3" d="M706,733.51a.3.3,0,0,1-.34-.34.41.41,0,0,1,.23-.56l1.8-.57,9.15-7,8.7-11.52,8.25-15.93v-.12l7.91-9.94a.38.38,0,0,1,.56-.11.39.39,0,0,1,.12.56l-7.91,9.83-8.25,15.93h0l-8.7,11.64-.11.11-9.27,7.12a.11.11,0,0,0-.11.11l-1.81.57C706.08,733.51,706.08,733.51,706,733.51Z"/><path class="cls-3" d="M349.63,818.7h-.22c-.23-.11-.23-.34-.23-.57l.79-1.35,20.57-33.33h0l19.77-23.16,18.75-21.13,17.85-17.85h0L444,707.64h0l16.27-9.6h0l15.48-6.44,14.8-5.09,14-6.21,13.56-5.42h.11l13-.79h.11l.91.11,1.8.34c.23,0,.34.22.34.56s-.22.34-.56.34L532,675.1l-.9-.11-12.77.68L505,680.75,491,687l-14.8,5.08-15.48,6.44L444.54,708l-17,13.67L409.85,739.5l-18.75,21-19.77,23.17L350.76,817l-.79,1.36C349.86,818.59,349.75,818.7,349.63,818.7Z"/><path class="cls-3" d="M883.23,726.85c-.22,0-.34-.12-.34-.23a.41.41,0,0,1,.23-.56l1.13-.57,5-8.47L894,702.44l4.52-19.09,4.3-20.34,4.06-17.17v-.11l4-6.1c.11-.23.34-.23.56-.12s.23.34.12.57l-3.85,6-4.06,17.06-4.3,20.33-4.51,19.1L890,717.24v.12l-5.08,8.58c0,.12-.12.12-.23.23l-1.24.56C883.46,726.85,883.34,726.85,883.23,726.85Z"/><path class="cls-3" d="M1022.08,712.27h-.22l-1-.45-30.62-11.3-30.62-8.81-30.5-5.65-30.5-2.14-30.39,1.35L837.81,690c-.22,0-.45-.12-.45-.34s.11-.45.34-.45l30.39-4.64h0l30.51-1.35h0l30.61,2.14h0L959.83,691l30.62,8.82,30.61,11.29,1,.45a.42.42,0,0,1,.23.57C1022.53,712.16,1022.31,712.27,1022.08,712.27Z"/><path class="cls-3" d="M530.51,798.93h-.22a.42.42,0,0,1-.23-.57l.34-.68,15.82-26.21v-.11L561.36,756a.11.11,0,0,0,.11-.12l14.46-7.34h.23l33.32-2.6,12.88-1.58c.23,0,.46.11.46.34s-.12.45-.34.45l-12.88,1.58-33.33,2.6-14.35,7.23-15,15.25L531.19,798l-.34.68C530.85,798.81,530.63,798.93,530.51,798.93Z"/><path class="cls-3" d="M1021.18,712.27h0a.48.48,0,0,1-.45-.45v-.34l1.35-24.18,1.24-17.73,1.13-8.82v-.11l1-2.71a.42.42,0,0,1,.57-.23.42.42,0,0,1,.22.57l-1,2.6-1.13,8.81-1.25,17.74-1.35,24.63A.43.43,0,0,1,1021.18,712.27Z"/><path class="cls-3" d="M1497.27,678.83a.42.42,0,0,1-.34-.11l-.23-.11-22.82-10.29-23.05-9.71-23.16-7.68-23.27-4.75-23.27-4.29-23.28-3.84-19.54-2.15c-.23,0-.34-.23-.34-.45s.23-.45.45-.34l19.55,2.14,23.27,3.73,23.27,4.3,23.28,4.74h0l.79.23L1451,657.7l.9.34,22.26,9.38,23.05,10.39a.11.11,0,0,1,.11.12h.11c.23.22.23.45,0,.56C1497.49,678.83,1497.38,678.83,1497.27,678.83Z"/><path class="cls-3" d="M461.6,804.69c-.12,0-.23,0-.23-.11-.23-.12-.23-.34-.11-.57h0l14.68-24V780L493,761.76h0l16.27-12.54a.38.38,0,0,0,.23-.12l33.33.57,33.21-1,13.67-3.5h.12l32.53-.68h.12l9.83-1.13c.22,0,.45.11.45.34s-.11.45-.34.45l-10.06,1.25-32.53.67-13.67,3.51H576l-33.33,1L509.5,750l-16,12.43-16.84,18.07-14.69,24h0C461.82,804.69,461.71,804.69,461.6,804.69Z"/><path class="cls-3" d="M1805.47,741.31c-.11,0-.22,0-.34-.23l-11-12.88-16.84-20.33-16.15-17.29-15.59-10.17-15.37-1.58c-.23,0-.34-.22-.34-.45s.23-.45.45-.34l15.48,1.58c.11,0,.11,0,.23.11L1761.86,690l.12.11,16.15,17.4L1795,727.86l11,12.88a.38.38,0,0,1,0,.57C1805.7,741.2,1805.59,741.31,1805.47,741.31Z"/><path class="cls-3" d="M420.25,677.7h-.34l-6.78-.34a.34.34,0,0,1-.34-.45c0-.23.23-.45.45-.34l7.12.34L448,675.67l14.69-4,14.12-3.05h0l13.56-1.24h.11l12.54.9c.22,0,.45.23.34.46s-.23.45-.45.33l-12.54-.9L477,669.45l-14,3-14.69,4h-.11Z"/><path class="cls-3" d="M1544.49,721.42h-.11l-4.52-1.58-15.14-5.42-29.48-11-29.49-7L1436,693.52c-.11,0-.22-.11-.33-.23l-8.59-14.23L1419,666.74l-7.9-8.7-7.69-4.74c-.22-.12-.22-.34-.11-.57a.4.4,0,0,1,.57-.11l7.68,4.75a.11.11,0,0,1,.11.11l7.91,8.81h0l8.25,12.32,8.47,14.12,29.49,2.93h0l29.6,7h0l29.49,11,19.65,7a.42.42,0,0,1,.23.57C1544.83,721.31,1544.72,721.42,1544.49,721.42Z"/><path class="cls-3" d="M1531.28,720.07a.41.41,0,0,1-.34-.11l-6.44-5.65v-.12l-10.62-14.57-10.28-12.09-9.83-8.25-9.49-4.06a.43.43,0,0,1,.34-.8l9.6,4.19a.11.11,0,0,1,.11.11l9.94,8.36h0l10.28,12.2,10.62,14.57,6.44,5.65c.23.23.23.46,0,.57Z"/><path class="cls-3" d="M131.7,699.73c-.11,0-.23,0-.23-.11-.22-.23-.22-.45,0-.57h0l13.33-15.93,18.76-22.82h0l18.3-17.74a.11.11,0,0,0,.11-.11l18-8.47a.43.43,0,0,1,.34.79l-18,8.47L164.12,661l-18.75,22.71-13.33,16Z"/><path class="cls-3" d="M1519.64,718.71h-.11l-13.45-4.63a.34.34,0,0,1-.22-.11l-10.62-10.62h0l-10.06-14.12-9.6-11.3-9.15-7.23-4.86-1.25c-.23,0-.34-.34-.34-.56s.34-.34.56-.34l5,1.24a.34.34,0,0,1,.23.12l9.26,7.34h0l9.61,11.3,10.05,14.12,10.51,10.51,13.44,4.63a.41.41,0,0,1,.23.56C1520,718.6,1519.86,718.71,1519.64,718.71Z"/><path class="cls-3" d="M1081.06,667.76h0l-27-2.71h0l-28.13-6.67-21.58-5.08L998,651.83l-1.7-.45c-.22,0-.34-.34-.34-.57s.34-.34.57-.34l1.69.46,6.33,1.46,21.58,5.09,28.13,6.66,26.89,2.72,25.76-2.6,24.74-7.8,23.84-10.28h.34l1.69.57,25.65-8.82,25.87-7.11,25.87-4.86a.46.46,0,1,1,.23.9l-25.87,4.86-25.76,7.12-25.76,8.81h-.34l-1.69-.57L1132,657.25h0l-24.74,7.8h-.12l-26.09,2.71Z"/><path class="cls-3" d="M-24,708.66h0l-4.63-1.13-19.54-6.44-3.62-1.24a.42.42,0,0,1-.22-.57.41.41,0,0,1,.56-.23l3.62,1.25,1.92.67,17.62,5.77,4.52,1.13,21.81-.23,23.72-6.44,22.48-10.39,21.36-11.87h.11l24.4-5.42,20-12.2h.11L134.07,654l19-7.23,23.5-7.35,23.73-5.53,23.84-3.51,23.95-1.24a.51.51,0,0,1,.45.34.5.5,0,0,1-.34.45l-24,1.24-23.84,3.51-23.61,5.53-23.73,7.35-19,7.23-23.84,7.34-20,12.2h-.12l-24.4,5.42L44.37,691.48l-22.49,10.4h-.11l-23.72,6.44h-.12Z"/><path class="cls-3" d="M1798.92,849c-.11,0-.22,0-.22-.12l-.91-.67L1776.55,832l-41.24,1.58L1694,836.77a.4.4,0,0,1-.33-.11l-20.23-18.75h0l-18.53-25.42-17.28-28.13-16.27-24-15.71-13.67-15.13-5.42h0l-1.59.23-32.65,4.06H1556l-13.45-4.29-12.76-1.47-32.2.23h-.23l-11.18-5.2h0l-10.51-7-.11-.12-9.83-11.52h0l-9.15-13.78-28.7-3.17-29-.22-29,2.14L1340.57,685l-29,4.86-28.92,5.31-28.92,5L1224.88,704l-28.81,2.14-28.7-.34h0l-28.58-3.5h0L1110.2,695h0l-28.47-11-28.47-11.86-28.47-11.3-27.56-9.38-.91-.23-28.47-7c-.22,0-.34-.34-.34-.57s.34-.33.57-.33l28.47,7,.9.23,27.8,9.49,28.24,11.18L1082,683.12l28.47,11,28.47,7.35,28.58,3.5,28.59.34,28.69-2.15,28.81-3.84,28.93-5,28.92-5.31,29-4.86,29-3.84,29.15-2.15,29,.23h0l28.93,3.28c.11,0,.22.11.34.11l9.26,13.89,9.83,11.42,10.51,7,11.07,5.08,32.08-.22h0l12.88,1.47h.12l13.44,4.29,32.54-4.07,1.69-.22h.12l15.25,5.53a.11.11,0,0,1,.11.12l15.82,13.78.11.11,16.38,23.95L1655.44,792l18.53,25.3L1694.08,836l41.23-3.16,41.35-1.58a.41.41,0,0,1,.34.11l22.37,16.95c.12.11.23.45.12.56A1.46,1.46,0,0,1,1798.92,849Z"/><path class="cls-3" d="M2009.74,762.21h0l-18.64-.68a.41.41,0,0,1-.34-.11l-22.37-24.86L1947,712.72,1926.81,689l-19.09-23.61h-28.81l-29.15,2.93-29.26,6.1-29.37,7.91-29.27,8.48-29.26,7.91-29.15,6.66-28.92,4.75-28.81,2.37-28.58-.23-28.47-2.82-28.36-5.31-28.24-7.46-28.14-9L1475.8,678l-28.13-7-28.24-4.18-28.25-1.7-28.36.57L1334.47,668l-28.36,3.5-28.25,4.29-28.24,4.41-28.13,3.95-28.13,2.94-28,1.24-28-1.35h0l-27.91-4.64h0l-27.79-7.68-27.79-8.36-8.48-2.37a.63.63,0,0,1-.33-.57.62.62,0,0,1,.56-.34l8.47,2.49,27.8,8.36,27.79,7.68,27.79,4.63,27.91,1.36,28-1.24,28.13-2.94,28.13-4,28.24-4.41,28.36-4.29,28.36-3.51,28.36-2.26,28.35-.56,28.36,1.69,28.36,4.18,28.24,7,28.14,9.6,28.13,9,28.13,7.34,28.24,5.31,28.36,2.83,28.47.22,28.7-2.37,28.92-4.74,29-6.67,29.14-7.91,29.38-8.47,29.37-7.91,29.38-6.1h0l29.15-2.94h29c.11,0,.23,0,.34.23l19.32,23.84,20.22,23.72,21.36,23.84,22.25,24.74,18.42.68a.49.49,0,0,1,.45.45A.8.8,0,0,1,2009.74,762.21Z"/><path class="cls-3" d="M1391,650.59h-.12l-1.92-.57-4-1.24-15-4.41a.46.46,0,1,1,.23-.9l15,4.4,4,1.25,1.92.56c.22,0,.34.34.34.57S1391.18,650.59,1391,650.59Z"/><path class="cls-3" d="M1929.64,857.22l-43.05-.9a.43.43,0,0,1-.34-.11l-27.11-26-25-28.24-40.11,2.14-40.22,3-40.22,4.41-40.1,6.33-40.11,8.47-40,7.46-39.76,5-39.55,1.81a.41.41,0,0,1-.34-.12l-14-13.22v-.11l-13-18.41-12.09-20.23-11.41-17.28-10.84-14.8-10.28-13.22-9.83-12.2L1423,719.16l-8.81-12.31L1406,693.52l-7.91-14.69-7.45-13.78-7.12-10.62-27.34-1.81h-27.68l-27.57,1.58L1273.35,657l-27.57,3.72-27.57,4.18-27.45,4-27.46,3.16L1136,673.52l-27.34-1L1081.4,669l-7.69-1.13c-.22,0-.34-.22-.34-.45s.23-.34.46-.34l7.68,1.13,27.23,3.5,27.22,1,27.34-1.47,27.46-3.16,27.45-4,27.57-4.18,27.57-3.72,27.68-2.83,27.68-1.58h27.67l27.68,1.81c.12,0,.23.11.34.22l7.23,10.85,7.57,13.9,7.8,14.68,8.25,13.33,8.7,12.32,9.26,11.86L1443,743l10.28,13.22,10.85,14.91,11.52,17.29,12.09,20.22,12.88,18.42,13.89,13.1,39.32-1.8,39.77-5,40-7.35,40.11-8.47,40.22-6.33,40.22-4.4,40.22-3.05,40.34-2.15a.4.4,0,0,1,.33.11l25.09,28.36,27,25.87,42.82.9,43.15-1.35L2010,852a.5.5,0,0,1,.46.34.51.51,0,0,1-.34.45l-36.83,3.5Z"/><path class="cls-3" d="M752.4,786.27c-.22,0-.34-.22-.45-.34s.11-.45.34-.45l.56-.11,4.3-.9,5.76-1.13,25.31-9.27,9.71-8.7,9-10.28,8.47-10.62,8-9.6h0L831,728l.11-.12,7.12-2.59h.22l24.07,1a.46.46,0,0,1,0,.91l-24-1-7,2.48-7.46,6.78L816.23,745l-8.47,10.62-9.15,10.28h0l-9.83,8.7-.11.11-25.42,9.38h-.11l-5.88,1.13-4.29.9-.57.11Z"/><path class="cls-3" d="M1462,829.43l-38-1.69c-.11,0-.23,0-.23-.12L1413,817.68h0l-10.17-13-9.49-12.32-9-13L1375.82,765l-7.91-15.81-7.46-16.72-7.12-16.73-6.77-15.13-6.44-15.82-6.1-17.17-5.77-15.37-5.65-11.75-5.42-7.46-5.2-3.61-25.64-3.73h-.11l-4.52-1.92-4.41-.23-4.18-.22-16.5-.91-3.84.12-12,1.13-9.27.68-15.14,3a.47.47,0,0,1-.22-.91l15.25-3h0l9.26-.68,12.09-1.13,4-.11,16.61.9,4.18.23,4.52.23h.11l4.52,1.92,25.76,3.73c.11,0,.11,0,.11.11l5.31,3.84a.11.11,0,0,1,.11.11l5.43,7.57v.12l5.64,11.86,5.88,15.36,6,17.18,6.44,15.81,6.78,15,7.11,16.72L1368.7,749l7.91,15.82L1385,779l8.92,12.88,9.49,12.32,10.06,12.88,10.73,9.71,37.85,1.7,38.19-2,38.41-5.42,38.64-8.36,38.86-10.28,39-10.62,39-8.14,39-5.53,39-3.39a.5.5,0,0,1,.45.34c0,.22-.11.45-.33.45l-39,3.39-39,5.54-39,8.13-39,10.62-38.87,10.28-38.64,8.36-38.41,5.42-38.3,2.15Z"/><path class="cls-3" d="M1511.62,682.9h-.23l-1.24-.57-21.35-9-22.71-10.17-22.6-9.61-22.71-7.68L1398,641.21l-22.82-3.5-22.82-2.38-18.64-.67a.46.46,0,1,1,0-.91l18.75.68,22.82,2.37,22.82,3.51,22.83,4.63h0l22.7,7.68,22.71,9.6L1489,672.39l22.48,9.6a.42.42,0,0,1,.23.57C1512,682.9,1511.73,682.9,1511.62,682.9Z"/><path class="cls-3" d="M644.62,676.46c-.23,0-.34-.11-.45-.34a.63.63,0,0,1,.34-.57l2-.45,8.47-2.26,6.78-1.58a.62.62,0,0,1,.57.34.63.63,0,0,1-.34.57l-6.78,1.58L646.77,676l-2.15.45Z"/><path class="cls-3" d="M1687.86,724.7a.43.43,0,0,1-.34-.11L1674,710l-13.67-9.37-13.45-2.49c-.22,0-.34-.23-.34-.56s.23-.34.57-.34l13.44,2.48a.34.34,0,0,1,.23.12l13.78,9.37h.11l13.56,14.58a.36.36,0,0,1,0,.56C1688.09,724.7,1688,724.7,1687.86,724.7Z"/><path class="cls-3" d="M1599,721.42a.32.32,0,0,1-.34-.22l-10.39-11.86-11.75-9.49-11.41-4.52a.42.42,0,0,1-.23-.57.41.41,0,0,1,.56-.22l11.53,4.51a.11.11,0,0,1,.11.12l11.86,9.6h0l10.4,12c.22.11.11.45,0,.56S1599.06,721.42,1599,721.42Z"/><path class="cls-3" d="M1473.32,672.17h-.23l-14.91-6.11-23.61-7.57-23.73-4.85-23.73-5.54-23.61-5.76a.34.34,0,0,1-.22-.11l-5.65-4.3-5.43-2.6a.43.43,0,0,1,.34-.79l5.54,2.71h.11l5.65,4.3,23.61,5.76,23.73,5.54,23.72,4.85h0l23.62,7.69,14.91,6.1a.41.41,0,0,1,.23.56A1.14,1.14,0,0,1,1473.32,672.17Z"/><path class="cls-3" d="M1748.42,841.75c-.11,0-.23,0-.23-.12l-.22-.11-13-8-.12-.11-21.35-21.92h0l-19.77-27.12-18.42-28.24-17.51-22.26L1641,723.23l-16.38-1.69h-34.35l-14.46.11-33.22-.23-33.21,4.41-33.33,7.8-33.33,9.94-33.33,10.84-33.21,11-33,10.06L1310.29,784l-8.59,1.7a.61.61,0,0,1-.56-.34.63.63,0,0,1,.34-.57l8.58-1.69,32.88-8.59,33-10,33.22-11,33.21-11,33.33-9.94,33.44-7.8h0l33.33-4.4h0l33.22.22,14.57-.22h34.8L1641,722.1c.11,0,.11,0,.11.11L1658.15,733a.11.11,0,0,1,.11.11l17.51,22.37,18.42,28.25,19.66,27.11,21.35,21.8,13.11,8.14c.22.11.22.34.11.56C1748.65,841.63,1748.53,841.75,1748.42,841.75Z"/><path class="cls-3" d="M1625.16,721.42a.42.42,0,0,1-.34-.11h0l-8-9-12.43-9.49-12.09-3.84a.41.41,0,0,1-.22-.56.41.41,0,0,1,.56-.23l12.09,4a.11.11,0,0,1,.11.12l12.43,9.6h0l8.14,9.15a.39.39,0,0,1,0,.57C1625.39,721.42,1625.27,721.42,1625.16,721.42Z"/><path class="cls-3" d="M1373.44,814.18a.4.4,0,0,1-.33-.11l-6.22-5.88h-9.6a.45.45,0,0,1,0-.9h9.83a.43.43,0,0,1,.34.11l6.32,6c.23.22.23.45,0,.56C1373.78,814.18,1373.56,814.18,1373.44,814.18Z"/><path class="cls-3" d="M-90,808.3c-.12,0-.34-.11-.34-.22a.42.42,0,0,1,.22-.57l11-6.21,34-27.23,32-26.44a.42.42,0,0,1,.34-.11l34.46,2.83,29.26-21.81a.43.43,0,0,0,.23-.11l33.66.68,33.56,1.13,25.76-21.81a.34.34,0,0,1,.22-.11l32.65-.68,23.84-16.72c.11,0,.11-.11.23-.11l31.86-2,22.14-9.94h.23l31.18-1.35h0l31.29,1.92,19.55-5.65h.11l4.63.22,5.43.68,20.67,1.81L399,681.77l30.84,7.34L446.12,684h.22l30.06,7.45,30.16,8.59,30.05,9,13-8.36a.21.21,0,0,1,.33,0l29.38,7.68,29.37,6.78,29.38,5.08,29.26,2,29.26-2,29.26-6.89,29.26-10,29.38-11.3L814,681.2l29.6-9.15,29.71-6.44h0L903,662.68h0l29.83.79h0L962.66,668h0l29.93,8,29.94,10.84,29.83,12.77L1082.19,713l5.87,2.49a.41.41,0,0,1,.23.56.42.42,0,0,1-.57.23l-5.87-2.49L1052,700.41l-29.83-12.77L992.37,676.8l-29.83-8-29.82-4.52L903,663.47l-29.71,2.93-29.71,6.44L814.09,682,784.6,692.84l-29.37,11.3L726,714.19h0l-29.27,6.89h-.11l-29.26,2h0L638,721l-29.49-5.08L579,709l-29.26-7.69-13,8.36a.21.21,0,0,1-.34,0l-30.17-9.15-30.16-8.58-29.94-7.35-16.27,5.09h-.23l-30.84-7.35L368.05,677l-20.68-1.8-5.31-.68-4.51-.23L318,679.85h-.11l-31.41-1.92L255.3,679.4l-22.15,9.94H233l-31.75,2-23.72,17a.43.43,0,0,0-.23.11l-32.65.68L118.82,731a.42.42,0,0,1-.34.11L84.81,730l-33.44-.68L22,751.14c-.12,0-.23.11-.34.11l-34.46-2.82-31.86,26.32-34,27.23h0l-11.07,6.21A.34.34,0,0,1-90,808.3Z"/><circle class="cls-4" cx="241.29" cy="714.13" r="15.98"/><path class="cls-5" d="M248.48,712.13c.4-2-1.2-3.2-3.4-4l.8-2.79-1.8-.4-.6,2.8c-.39-.2-1-.2-1.39-.4l.6-2.8-1.8-.4-.8,2.8c-.4,0-.8-.2-1.2-.2h0l-2.39-.6-.4,1.8s1.19.19,1.19.39a1,1,0,0,1,.8,1l-.8,3.2h0l-1.19,4.59a.59.59,0,0,1-.8.4l-1.2-.4-.8,2,2.2.6c.4.2.8.2,1.2.4l-.8,2.79,1.79.4.8-2.79c.4.2,1,.2,1.4.4l-.8,2.79,1.8.4.8-2.8c3,.6,5.19.4,6-2.39.8-2.2,0-3.4-1.6-4.2A2.61,2.61,0,0,0,248.48,712.13Zm-4,5.59c-.6,2.2-4.19,1-5.39.6l1-3.8C241.29,714.92,245.08,715.52,244.48,717.72Zm.6-5.59c-.4,2-3.39,1-4.39.8l.8-3.4C242.49,709.73,245.48,710.13,245.08,712.13Z"/><circle class="cls-4" cx="829.45" cy="676.57" r="4.86"/><path class="cls-5" d="M831.6,675.89c.11-.67-.34-1-1-1.24l.23-.9-.57-.12-.22.79c-.11,0-.23-.11-.45-.11l.22-.9-.56-.11-.23.9a.43.43,0,0,1-.34-.11h0l-.68-.23-.11.56.34.12c.23,0,.23.22.23.34l-.23,1h0l-.34,1.36c0,.11-.11.11-.22.11l-.34-.11-.23.56.68.23c.11,0,.22.11.34.11l-.23.91.57.11.22-.9c.12,0,.34.11.45.11l-.33,1,.56.11.23-.9c.9.22,1.58.11,1.8-.68a.89.89,0,0,0-.45-1.25A.84.84,0,0,0,831.6,675.89Zm-1.24,1.7c-.12.68-1.25.34-1.58.22l.33-1.13C829.45,676.8,830.58,676.91,830.36,677.59Zm.22-1.7c-.11.57-1,.34-1.35.23l.22-1C829.79,675.1,830.7,675.33,830.58,675.89Z"/><circle class="cls-4" cx="971.81" cy="872.24" r="38.42"/><path class="cls-5" d="M989.1,867.43c1-4.8-2.88-7.68-8.17-9.6l1.92-6.73-4.32-1-1.44,6.73c-1-.48-2.4-.48-3.36-1l1.44-6.73-4.32-1L968.92,855c-1,0-1.92-.48-2.88-.48h0L960.28,853l-1,4.32s2.88.48,2.88,1c1.92.48,1.92,1.44,1.92,2.4l-1.92,7.69h0l-2.88,11a1.42,1.42,0,0,1-1.92,1l-2.89-1-1.92,4.81,5.29,1.44c1,.48,1.92.48,2.88,1l-1.92,6.72,4.32,1,1.92-6.72c1,.48,2.4.48,3.36,1l-1.92,6.72,4.33,1,1.92-6.72c7.2,1.44,12.48,1,14.41-5.76,1.92-5.29,0-8.17-3.85-10.09C986.7,872.72,988.62,871.28,989.1,867.43Zm-9.61,13.45c-1.44,5.29-10.09,2.41-13,1.44l2.4-9.12C971.81,874.16,980.93,875.6,979.49,880.88Zm1.44-13.45c-1,4.81-8.16,2.41-10.56,1.93l1.92-8.17C974.69,861.19,982.37,862.63,980.93,867.43Z"/><circle cx="1584.35" cy="707.98" r="20.53"/><g class="cls-6"><polygon class="cls-7" points="1584.35 728.85 1605.22 707.98 1584.35 686.76 1563.13 707.98 1584.35 728.85"/></g><circle cx="163.56" cy="957.38" r="12.93"/><g class="cls-8"><polygon class="cls-9" points="163.56 970.74 176.71 957.38 163.56 944.23 150.19 957.38 163.56 970.74"/></g><circle class="cls-10" cx="469.62" cy="751.76" r="9.09"/><path class="cls-11" d="M470.71,752.49h-2.18c-2.18-.18-3.82-.54-3.82-.91,0-.54,1.64-.91,3.82-.91v1.46h2.18v-1.46c2.18.19,3.82.55,3.82.91,0,.55-1.64.91-3.82.91m0-2v-1.27h3.09v-2h-8.36v2h3.09v1.27c-2.55.18-4.37.55-4.37,1.27,0,.55,1.82,1.1,4.37,1.28v4.36h2.18V753c2.54-.18,4.36-.55,4.36-1.28s-1.82-1.09-4.36-1.27"/><circle class="cls-10" cx="1248.86" cy="716.76" r="14.6"/><path class="cls-11" d="M1250.61,717.93h-3.5c-3.51-.29-6.14-.88-6.14-1.46,0-.88,2.63-1.46,6.14-1.46v2.34h3.5V715c3.51.29,6.13.88,6.13,1.46,0,.88-2.62,1.46-6.13,1.46m0-3.21v-2.05h5v-3.21h-13.44v3.21h5v2.05c-4.09.29-7,.87-7,2s2.92,1.76,7,2v7h3.5v-7c4.09-.29,7-.88,7-2,0-.87-2.92-1.75-7-2"/><path class="cls-12" d="M1366.2,914.62a42.81,42.81,0,1,0-42.81-42.81A42.59,42.59,0,0,0,1366.2,914.62Z"/><path class="cls-5" d="M1378.11,878.89c0-6.12-3.86-8.37-11.26-9.33-5.47-.65-6.44-2.26-6.44-4.51s1.93-4.19,5.47-4.19c3.22,0,5.15,1,5.8,3.87.32.64.64,1,1.28,1h2.9a1.39,1.39,0,0,0,1.29-1.28v-.33a8.9,8.9,0,0,0-8.05-7.4V852.5a1.38,1.38,0,0,0-1.29-1.29h-2.57a1.38,1.38,0,0,0-1.29,1.29v4.18c-5.47.64-8.69,4.18-8.69,8.69,0,5.79,3.54,8,10.94,9,5.15,1,6.44,1.93,6.44,4.83s-2.57,4.83-5.79,4.83c-4.51,0-6.12-1.93-6.76-4.51-.32-.64-.65-1-1.29-1h-2.9a1.38,1.38,0,0,0-1.28,1.29v.32c.64,4.5,3.54,7.72,9.33,8.69v4.18a1.38,1.38,0,0,0,1.29,1.29h2.57a1.38,1.38,0,0,0,1.29-1.29v-4.83c5.15-1,9-4.5,9-9.33Z"/><path class="cls-5" d="M1357.19,897.56c-13.84-5.15-20.92-20.6-15.77-34.12a26.37,26.37,0,0,1,15.77-15.77,1.94,1.94,0,0,0,1-1.93v-2.58c0-.64-.32-1.29-1-1.29-.32,0-.64,0-.64.33a32.06,32.06,0,0,0,0,61.15,1.18,1.18,0,0,0,1.61-.64c.32-.32.32-.32.32-.65v-2.57A4.89,4.89,0,0,0,1357.19,897.56Zm18.67-55.69a1.18,1.18,0,0,0-1.61.65c-.32.32-.32.32-.32.64v2.58c0,.64.64,1.28,1,1.93,13.84,5.15,20.93,20.6,15.78,34.12a26.38,26.38,0,0,1-15.78,15.77,1.94,1.94,0,0,0-1,1.93v2.57c0,.65.32,1.29,1,1.29.33,0,.65,0,.65-.32a32.19,32.19,0,0,0,20.92-40.23,31.21,31.21,0,0,0-20.6-20.93Z"/><path class="cls-12" d="M714.55,842.76a22.09,22.09,0,1,0-22.09-22.09A22.12,22.12,0,0,0,714.55,842.76Z"/><path class="cls-5" d="M720.5,824.35c0-3.11-2-4.24-5.66-4.81-2.83-.28-3.4-1.13-3.4-2.27s.85-2,2.83-2a2.87,2.87,0,0,1,3.12,2,.6.6,0,0,0,.56.57h1.42a.61.61,0,0,0,.57-.57h0a4.3,4.3,0,0,0-4.25-3.68v-2.26c0-.29-.29-.57-.85-.85h-1.42c-.28,0-.56.28-.85.85v2a4.64,4.64,0,0,0-4.53,4.53c0,3.11,1.7,4.25,5.66,4.53,2.55.57,3.4,1.13,3.4,2.55a2.88,2.88,0,0,1-3.11,2.55c-2.27,0-3.12-1.13-3.4-2.27a.6.6,0,0,0-.57-.56h-1.41a.6.6,0,0,0-.57.56h0c.28,2.27,1.7,4,4.82,4.53V832c0,.28.28.57.84.85h1.42c.28,0,.57-.28.85-.85v-2.27c2.83-.85,4.53-2.83,4.53-5.38Z"/><path class="cls-5" d="M710,834a13.71,13.71,0,0,1,0-25.77c.29-.28.57-.57.57-.85v-1.42c0-.28-.28-.56-.57-.85h-.28A16.34,16.34,0,0,0,699,825.77a17,17,0,0,0,10.76,10.76.54.54,0,0,0,.85-.28v-1.7Zm9.63-28.6a.54.54,0,0,0-.85.28v1.7c0,.28.29.85.57.85a13.71,13.71,0,0,1,0,25.77c-.28.29-.57.57-.57.85v1.42c0,.28.29.57.57.85h.28a16.32,16.32,0,0,0,10.76-20.68,16.75,16.75,0,0,0-10.76-11Z"/><circle class="cls-2" cx="532.31" cy="540" r="126.15"/><path class="cls-5" d="M532.31,367a173,173,0,1,0,173,173h0A173,173,0,0,0,532.31,367Zm-89,179c-12.21-35.59,2.9-81.33,36.9-104.69,40.22-27.62,99.17-17.9,125.57,20.74,2.36,3.56,9.22,12.69,4.68,11.43C499.56,442.7,465.88,514.6,454.83,546a6.07,6.07,0,0,1-11.46,0Zm35.6-.8C493.36,535,527.2,518,575,536.33c21.82,9.67,24.21,15.77,12.8,36.1-10,17.92-38.84,48.32-54.07,43.48-27.77-8.9-49.11-40.49-58.08-55.83A11.21,11.21,0,0,1,479,545.23ZM459.85,580.4a4.68,4.68,0,0,1,8.63-2.7,167.37,167.37,0,0,0,43.77,45.9,4.66,4.66,0,0,1-2.55,8.47,47.3,47.3,0,0,1-28.48-9.41C469.85,614,460.36,597,459.85,580.4Zm150,4.13c-5.45,19.79-16.44,47-37.52,60s-46.54,12.45-68.5,2.27h0a2.06,2.06,0,0,1,.89-4,94.28,94.28,0,0,0,12.45-.89,110.74,110.74,0,0,0,40.94-14.36c18.53-10.93,33.53-26.91,45-45l.54-.87a3.56,3.56,0,0,1,6.19,2.74Zm9.56-35.86c-52.19-49-107.73-37.38-131.71-26.82a3.44,3.44,0,0,1-4.08-5.34c25.92-32.33,69.12-45,130.5-28.48C627.06,491.46,629,557.66,619.43,548.67Z"/><path class="cls-5" d="M872.41,550.22h-4.36l-77.69-88.89v89H775.63V427.64H780l78.19,90.09V427.64h14.23Z"/><path class="cls-5" d="M966.35,424.63a66.06,66.06,0,0,1,33,8.46A61.65,61.65,0,0,1,1023,456.44a65.42,65.42,0,0,1,0,64.8,61.93,61.93,0,0,1-23.44,23.44,64.07,64.07,0,0,1-32.41,8.54,65.35,65.35,0,0,1-32.55-8.45,61.5,61.5,0,0,1-23.57-23.28,63.67,63.67,0,0,1-8.54-32.3,64.59,64.59,0,0,1,8.54-32.49,62.19,62.19,0,0,1,23.37-23.53A62.93,62.93,0,0,1,966.35,424.63Zm.5,114.53a48.6,48.6,0,0,0,35.42-14.24,48,48,0,0,0,14.47-35.59,48.7,48.7,0,0,0-14.65-36,48.2,48.2,0,0,0-35.24-14.58,47.07,47.07,0,0,0-35.24,14.65A49.42,49.42,0,0,0,917.46,489,48.39,48.39,0,0,0,932,524.6,47.48,47.48,0,0,0,966.85,539.16Z"/><path class="cls-5" d="M1194.24,550.22H1180l-11.4-83.39-41.18,83.39h-4.36l-41.69-84.07L1070,550.22h-13.9l17.43-122.58h3.56l48.23,97.28,47.88-97.28h3.56Z"/><path class="cls-5" d="M1332,550.22h-15.18l-18.92-40.94h-50.62l-18.76,40.94h-15.89l57.91-127.44h4.34Zm-40.69-55.61-18.58-41.34L1254,494.61Z"/><path class="cls-5" d="M1356.16,427.64h26.12q26.48,0,38.52,3.93A54.06,54.06,0,0,1,1455.11,464a74.21,74.21,0,0,1,4.7,27.47,64.52,64.52,0,0,1-7,29.38,52,52,0,0,1-19.75,21.59q-12.82,7.8-37.38,7.8h-39.51Zm13.9,108.84h12.65q21.26,0,31-2.18a38.23,38.23,0,0,0,17.09-8.36,40.46,40.46,0,0,0,11-15.16,56.21,56.21,0,0,0-.77-42.33,41,41,0,0,0-12.63-16.23,44.87,44.87,0,0,0-19.26-8.38,181.81,181.81,0,0,0-31.7-2.09H1370Z"/><path class="cls-5" d="M1560.69,441.88h-57v35.17h56.44v14.06h-56.44V536h56.44v14.24h-70.84V427.64h71.35Z"/><path class="cls-5" d="M786.77,595.26v5.61a14.49,14.49,0,0,0-5.82-1.42,3.22,3.22,0,0,0-3.31,1.63,13.68,13.68,0,0,0-.75,5.34v4.86h9.29v4.9h-9.29v39.6h-5.78v-39.6h-5.77v-4.86h5.77V605.5a13.9,13.9,0,0,1,2.17-8.63,8.12,8.12,0,0,1,6.78-2.76A24.65,24.65,0,0,1,786.77,595.26Z"/><path class="cls-5" d="M808.79,598.86a4.62,4.62,0,0,1,1.38-3.35,4.42,4.42,0,0,1,3.35-1.42,4.65,4.65,0,0,1,3.35,1.37,4.79,4.79,0,0,1,0,6.71,4.65,4.65,0,0,1-3.35,1.37,4.42,4.42,0,0,1-3.35-1.42A4.55,4.55,0,0,1,808.79,598.86Zm1.78,12.46h5.78v44.49h-5.79Z"/><path class="cls-5" d="M845,611.25h5.79v8q6.87-9.12,16.66-9.13a15.76,15.76,0,0,1,9,2.73,14.81,14.81,0,0,1,5.69,7.11,38.6,38.6,0,0,1,1.68,12.94v22.86h-5.7V634.53A51.17,51.17,0,0,0,877.4,624a13.61,13.61,0,0,0-2.17-4.68,9.6,9.6,0,0,0-3.74-2.94,13.38,13.38,0,0,0-5.48-1,13.61,13.61,0,0,0-6.32,1.58,15.57,15.57,0,0,0-5.34,4.43,16,16,0,0,0-2.94,5.88,61.67,61.67,0,0,0-.75,12.14v16.32h-5.78Z"/><path class="cls-5" d="M957.06,611.25v44.49h-5.62v-7.61q-7.62,9.12-17.41,9.13a22.09,22.09,0,0,1-16.53-7,23.14,23.14,0,0,1-6.75-16.66A22.89,22.89,0,0,1,917.53,617a22,22,0,0,1,16.25-6.9,20.9,20.9,0,0,1,17.66,9.29v-8.12Zm-5.34,22.44a17.62,17.62,0,0,0-5.1-12.85,16.8,16.8,0,0,0-12.46-5.23A16.5,16.5,0,0,0,921.7,621a18.42,18.42,0,0,0,0,25.54,16.71,16.71,0,0,0,12.46,5.34,17,17,0,0,0,12.46-5.18,17.83,17.83,0,0,0,5.16-13Z"/><path class="cls-5" d="M986.7,611.25h5.76v8c4.58-6.08,10.15-9.13,16.66-9.13a15.64,15.64,0,0,1,9,2.73,14.61,14.61,0,0,1,5.7,7.11,38.09,38.09,0,0,1,1.67,12.94v22.86h-5.67V634.53a51.88,51.88,0,0,0-.72-10.56,13,13,0,0,0-2.19-4.68,9.47,9.47,0,0,0-3.72-2.94,13.33,13.33,0,0,0-5.48-1,13.67,13.67,0,0,0-6.32,1.58,15.86,15.86,0,0,0-5.33,4.43,16.07,16.07,0,0,0-2.92,5.88,59.43,59.43,0,0,0-.77,12.14v16.32H986.7Z"/><path class="cls-5" d="M1097.94,620.47l-4.51,2.83a20.37,20.37,0,0,0-28.61-3.41c-.32.25-.63.5-.93.77a16.88,16.88,0,0,0-5.45,12.78,17.81,17.81,0,0,0,5.34,13,18.24,18.24,0,0,0,13.56,5.44,19.75,19.75,0,0,0,16-7.77l4.52,3a21.48,21.48,0,0,1-8.84,7.46,29,29,0,0,1-12.19,2.6,23.57,23.57,0,0,1-17.21-6.78,22.42,22.42,0,0,1-6.91-16.59,22.9,22.9,0,0,1,7-16.78,24.32,24.32,0,0,1,18-7,26.25,26.25,0,0,1,11.93,2.76A20.25,20.25,0,0,1,1097.94,620.47Z"/><path class="cls-5" d="M1162.85,641.31l4.86,2.51q-7.21,13.39-21.27,13.4a21.84,21.84,0,0,1-16.59-6.92,24.36,24.36,0,0,1,0-33.27,21.36,21.36,0,0,1,16.23-7,22.31,22.31,0,0,1,16.25,6.45q6.57,6.45,6.82,17.58h-40a18.5,18.5,0,0,0,5.06,12.94,15.8,15.8,0,0,0,11.69,4.89Q1157.22,651.93,1162.85,641.31Zm0-12.14a15.61,15.61,0,0,0-5.88-10,17.19,17.19,0,0,0-10.78-3.56q-12.59,0-16.41,13.57Z"/></svg>