<svg id="Layer_1" data-name="Layer 1" xmlns="http://www.w3.org/2000/svg" xmlns:xlink="http://www.w3.org/1999/xlink"
    viewBox="0 0 32 32">
    <defs>
        <style>
            .cls-1 {
                fill: #1c2826;
            }

            .cls-2 {
                fill: url(#linear-gradient);
            }

            .cls-3 {
                fill: url(#linear-gradient-2);
            }

            .cls-4 {
                fill: url(#linear-gradient-3);
            }
        </style>
        <linearGradient id="linear-gradient" x1="1.25" y1="15.99" x2="30.75" y2="15.99" gradientUnits="userSpaceOnUse">
            <stop offset="0" stop-color="#c7f284" />
            <stop offset="1" stop-color="#00bef0" />
        </linearGradient>
        <linearGradient id="linear-gradient-2" x1="7.62" y1="15.09" x2="16.29" y2="15.09"
            xlink:href="#linear-gradient" />
        <linearGradient id="linear-gradient-3" x1="16" y1="22.4" x2="23.32" y2="22.4" xlink:href="#linear-gradient" />
    </defs>
    <rect class="cls-1" x="1.5" y="1.5" width="29" height="29" rx="3.5" />
    <path class="cls-2"
        d="M27,29.75H6.43c-1.46,0-3,.1-3.83-1.41-.53-.95-.35-2.28-.35-3.34V6.92c0-1.1-.18-2.43.43-3.4.88-1.4,2.4-1.27,3.82-1.27h18c.89,0,1.81-.07,2.7,0,2.14.21,2.52,2.05,2.52,3.79,0,7,.26,14,0,20.9A2.81,2.81,0,0,1,27,29.75c-1,.05-1,1.55,0,1.5a4.36,4.36,0,0,0,4.25-4.46c0-1.37,0-2.74,0-4.11v-14c0-1.19,0-2.39,0-3.58A4.34,4.34,0,0,0,27,.75c-3.47-.12-7,0-10.45,0C12.74.75,9,.69,5.21.75A4.36,4.36,0,0,0,.75,5c0,1,0,1.93,0,2.89v14c0,3.13-.88,8.1,3.07,9.24a12.55,12.55,0,0,0,3.41.17H27A.75.75,0,0,0,27,29.75Z" />
    <path class="cls-3"
        d="M8.68,20.57A15.07,15.07,0,0,1,9,18.13c.48-.44.92-.91,1.38-1.36L13.11,14v2.13L10.36,13.4,9,12A17.89,17.89,0,0,1,8.68,9.6a16.44,16.44,0,0,1,2.43.31l1.38,1.37L15.23,14l1.06,1.07-1.06,1.06-2.74,2.74c-.46.46-.93.91-1.37,1.38A13.91,13.91,0,0,1,8.68,20.57Z" />
    <path class="cls-4"
        d="M16,22.4a11.78,11.78,0,0,1,.91-1.51c.31,0,.61,0,.92,0H22.4a14.08,14.08,0,0,1,.92,1.5,12.31,12.31,0,0,1-.92,1.5H17.83c-.31,0-.61,0-.92,0A11.28,11.28,0,0,1,16,22.4Z" />
</svg>