# 3ds Max Wavefront OBJ Exporter v0.97b - (c)2007 guruware
# File Created: 11.09.2018 00:09:50

#
# object coin_new
#

v  146.8797 -0.0000 7.4792
v  145.2392 -21.8913 7.4792
v  145.2392 -21.8913 -7.4792
v  146.8797 -0.0000 -7.4792
v  140.3542 -43.2936 7.4792
v  140.3542 -43.2936 -7.4792
v  132.3340 -63.7287 7.4792
v  132.3340 -63.7287 -7.4792
v  121.3577 -82.7403 7.4792
v  121.3577 -82.7403 -7.4793
v  107.6704 -99.9036 7.4792
v  107.6704 -99.9036 -7.4793
v  91.5780 -114.8352 7.4792
v  91.5780 -114.8352 -7.4793
v  73.4398 -127.2016 7.4792
v  73.4398 -127.2016 -7.4793
v  53.6612 -136.7265 7.4792
v  53.6612 -136.7265 -7.4793
v  32.6838 -143.1971 7.4792
v  32.6838 -143.1971 -7.4793
v  10.9763 -146.4690 7.4792
v  10.9763 -146.4690 -7.4793
v  -10.9763 -146.4690 7.4792
v  -10.9763 -146.4690 -7.4793
v  -32.6838 -143.1971 7.4792
v  -32.6838 -143.1971 -7.4793
v  -53.6612 -136.7265 7.4792
v  -53.6612 -136.7265 -7.4793
v  -73.4399 -127.2016 7.4792
v  -73.4399 -127.2015 -7.4793
v  -91.5780 -114.8352 7.4792
v  -91.5780 -114.8352 -7.4793
v  -107.6704 -99.9036 7.4792
v  -107.6704 -99.9036 -7.4793
v  -121.3577 -82.7403 7.4792
v  -121.3577 -82.7403 -7.4793
v  -132.3340 -63.7288 7.4792
v  -132.3340 -63.7288 -7.4792
v  -140.3542 -43.2936 7.4792
v  -140.3542 -43.2936 -7.4792
v  -145.2392 -21.8914 7.4792
v  -145.2392 -21.8914 -7.4792
v  -146.8797 -0.0001 7.4792
v  -146.8797 -0.0001 -7.4792
v  -145.2392 21.8912 7.4792
v  -145.2392 21.8912 -7.4792
v  -140.3543 43.2934 7.4792
v  -140.3543 43.2934 -7.4792
v  -132.3341 63.7286 7.4792
v  -132.3341 63.7286 -7.4792
v  -121.3578 82.7402 7.4792
v  -121.3578 82.7402 -7.4792
v  -107.6705 99.9034 7.4792
v  -107.6705 99.9034 -7.4792
v  -91.5781 114.8351 7.4792
v  -91.5781 114.8351 -7.4792
v  -73.4400 127.2014 7.4792
v  -73.4400 127.2014 -7.4793
v  -53.6614 136.7264 7.4792
v  -53.6614 136.7264 -7.4792
v  -32.6840 143.1971 7.4793
v  -32.6840 143.1971 -7.4792
v  -10.9766 146.4689 7.4793
v  -10.9766 146.4689 -7.4792
v  10.9761 146.4690 7.4793
v  10.9761 146.4690 -7.4792
v  32.6835 143.1972 7.4793
v  32.6835 143.1972 -7.4792
v  53.6609 136.7265 7.4792
v  53.6609 136.7265 -7.4792
v  73.4396 127.2017 7.4792
v  73.4396 127.2017 -7.4792
v  91.5778 114.8354 7.4792
v  91.5778 114.8354 -7.4792
v  107.6702 99.9038 7.4792
v  107.6702 99.9038 -7.4792
v  121.3575 82.7405 7.4792
v  121.3575 82.7406 -7.4792
v  132.3339 63.7290 7.4792
v  132.3339 63.7290 -7.4792
v  140.3541 43.2939 7.4792
v  140.3541 43.2939 -7.4792
v  145.2391 21.8916 7.4792
v  145.2391 21.8917 -7.4792
# 84 vertices

vn 0.7232 -0.0000 0.6906
vn 0.7151 -0.1078 0.6907
vn 0.7151 -0.1078 -0.6907
vn 0.7231 0.0000 -0.6907
vn 0.6910 -0.2132 0.6907
vn 0.6911 -0.2132 -0.6906
vn 0.6516 -0.3138 0.6907
vn 0.6516 -0.3138 -0.6907
vn 0.5975 -0.4074 0.6906
vn 0.5975 -0.4074 -0.6907
vn 0.5301 -0.4919 0.6907
vn 0.5301 -0.4919 -0.6907
vn 0.4509 -0.5654 0.6907
vn 0.4509 -0.5654 -0.6907
vn 0.3616 -0.6263 0.6907
vn 0.3616 -0.6263 -0.6907
vn 0.2642 -0.6732 0.6907
vn 0.2642 -0.6732 -0.6907
vn 0.1609 -0.7050 0.6907
vn 0.1609 -0.7050 -0.6907
vn 0.0540 -0.7212 0.6907
vn 0.0540 -0.7212 -0.6907
vn -0.0540 -0.7212 0.6907
vn -0.0540 -0.7212 -0.6907
vn -0.1609 -0.7050 0.6907
vn -0.1609 -0.7050 -0.6907
vn -0.2642 -0.6732 0.6907
vn -0.2642 -0.6732 -0.6907
vn -0.3616 -0.6263 0.6907
vn -0.3616 -0.6263 -0.6907
vn -0.4509 -0.5654 0.6907
vn -0.4509 -0.5654 -0.6907
vn -0.5301 -0.4919 0.6907
vn -0.5301 -0.4919 -0.6907
vn -0.5975 -0.4074 0.6907
vn -0.5975 -0.4074 -0.6907
vn -0.6516 -0.3138 0.6907
vn -0.6516 -0.3138 -0.6907
vn -0.6910 -0.2132 0.6907
vn -0.6911 -0.2132 -0.6906
vn -0.7151 -0.1078 0.6907
vn -0.7151 -0.1078 -0.6907
vn -0.7232 -0.0000 0.6907
vn -0.7232 -0.0000 -0.6907
vn -0.7151 0.1078 0.6907
vn -0.7151 0.1078 -0.6907
vn -0.6910 0.2132 0.6907
vn -0.6910 0.2132 -0.6907
vn -0.6516 0.3138 0.6907
vn -0.6516 0.3138 -0.6907
vn -0.5975 0.4074 0.6907
vn -0.5975 0.4074 -0.6907
vn -0.5301 0.4919 0.6907
vn -0.5301 0.4919 -0.6907
vn -0.4509 0.5654 0.6907
vn -0.4509 0.5654 -0.6907
vn -0.3616 0.6263 0.6907
vn -0.3616 0.6263 -0.6907
vn -0.2642 0.6732 0.6906
vn -0.2642 0.6731 -0.6907
vn -0.1609 0.7050 0.6907
vn -0.1609 0.7051 -0.6906
vn -0.0541 0.7212 0.6906
vn -0.0540 0.7211 -0.6907
vn 0.0540 0.7212 0.6907
vn 0.0540 0.7212 -0.6907
vn 0.1609 0.7050 0.6907
vn 0.1609 0.7050 -0.6907
vn 0.2642 0.6732 0.6907
vn 0.2642 0.6732 -0.6907
vn 0.3616 0.6263 0.6907
vn 0.3616 0.6263 -0.6907
vn 0.4509 0.5654 0.6907
vn 0.4509 0.5654 -0.6907
vn 0.5301 0.4919 0.6907
vn 0.5301 0.4919 -0.6907
vn 0.5975 0.4074 0.6907
vn 0.5975 0.4074 -0.6907
vn 0.6516 0.3138 0.6907
vn 0.6516 0.3138 -0.6907
vn 0.6910 0.2132 0.6907
vn 0.6910 0.2132 -0.6907
vn 0.7151 0.1078 0.6907
vn 0.7151 0.1078 -0.6907
# 84 vertex normals

o coin_new
g coin_new
s 8
f 1//1 2//2 3//3 4//4 
f 2//2 5//5 6//6 3//3 
f 5//5 7//7 8//8 6//6 
f 7//7 9//9 10//10 8//8 
f 9//9 11//11 12//12 10//10 
f 11//11 13//13 14//14 12//12 
f 13//13 15//15 16//16 14//14 
f 15//15 17//17 18//18 16//16 
f 17//17 19//19 20//20 18//18 
f 19//19 21//21 22//22 20//20 
f 21//21 23//23 24//24 22//22 
f 23//23 25//25 26//26 24//24 
f 25//25 27//27 28//28 26//26 
f 27//27 29//29 30//30 28//28 
f 29//29 31//31 32//32 30//30 
f 31//31 33//33 34//34 32//32 
f 33//33 35//35 36//36 34//34 
f 35//35 37//37 38//38 36//36 
f 37//37 39//39 40//40 38//38 
f 39//39 41//41 42//42 40//40 
f 41//41 43//43 44//44 42//42 
f 43//43 45//45 46//46 44//44 
f 45//45 47//47 48//48 46//46 
f 47//47 49//49 50//50 48//48 
f 49//49 51//51 52//52 50//50 
f 51//51 53//53 54//54 52//52 
f 53//53 55//55 56//56 54//54 
f 55//55 57//57 58//58 56//56 
f 57//57 59//59 60//60 58//58 
f 59//59 61//61 62//62 60//60 
f 61//61 63//63 64//64 62//62 
f 63//63 65//65 66//66 64//64 
f 65//65 67//67 68//68 66//66 
f 67//67 69//69 70//70 68//68 
f 69//69 71//71 72//72 70//70 
f 71//71 73//73 74//74 72//72 
f 73//73 75//75 76//76 74//74 
f 75//75 77//77 78//78 76//76 
f 77//77 79//79 80//80 78//78 
f 79//79 81//81 82//82 80//80 
f 81//81 83//83 84//84 82//82 
f 83//83 1//1 4//4 84//84 
s 1
f 25//25 23//23 21//21 19//19 
f 27//27 25//25 19//19 17//17 
f 29//29 27//27 17//17 15//15 
f 31//31 29//29 15//15 13//13 
f 33//33 31//31 13//13 11//11 
f 35//35 33//33 11//11 9//9 
f 37//37 35//35 9//9 7//7 
f 39//39 37//37 7//7 5//5 
f 41//41 39//39 5//5 2//2 
f 43//43 41//41 2//2 1//1 
f 45//45 43//43 1//1 83//83 
f 47//47 45//45 83//83 81//81 
f 49//49 47//47 81//81 79//79 
f 51//51 49//49 79//79 77//77 
f 53//53 51//51 77//77 75//75 
f 55//55 53//53 75//75 73//73 
f 57//57 55//55 73//73 71//71 
f 59//59 57//57 71//71 69//69 
f 61//61 59//59 69//69 67//67 
f 63//63 61//61 67//67 65//65 
f 62//62 64//64 66//66 68//68 
f 60//60 62//62 68//68 70//70 
f 58//58 60//60 70//70 72//72 
f 56//56 58//58 72//72 74//74 
f 54//54 56//56 74//74 76//76 
f 52//52 54//54 76//76 78//78 
f 50//50 52//52 78//78 80//80 
f 48//48 50//50 80//80 82//82 
f 46//46 48//48 82//82 84//84 
f 44//44 46//46 84//84 4//4 
f 42//42 44//44 4//4 3//3 
f 40//40 42//42 3//3 6//6 
f 38//38 40//40 6//6 8//8 
f 36//36 38//38 8//8 10//10 
f 34//34 36//36 10//10 12//12 
f 32//32 34//34 12//12 14//14 
f 30//30 32//32 14//14 16//16 
f 28//28 30//30 16//16 18//18 
f 26//26 28//28 18//18 20//20 
f 24//24 26//26 20//20 22//22 
# 82 polygons

